<svg viewBox="0 0 167 117">
    <g transform="matrix(1,0,0,1,-40.6438,-59.0353)">
        <g transform="matrix(0.303031,0,0,0.303031,8.17674,-13.5405)">
            <g id="g12854" transform="matrix(1,0,0,1,0,144.227)">
                <g id="g8843" transform="matrix(-0.411584,-0.00392431,0.000855236,0.392334,1614.02,-145.774)">
                    <path id="path8845" d="M3613.78,1143.32C3610.65,1148.79 3606.53,1154.06 3599.72,1158.98L3539.59,1096.32C3546.16,1086.92 3547.97,1082.15 3547.42,1071.3C3545.36,1030.07 3459.41,977.314 3348.3,958.769C3237.46,940.272 3048.9,839.669 2992.09,859.644L3014.11,823.314C3035.68,824.591 3089.11,857.642 3117.29,864.255C3131.88,869.36 3146.74,874.658 3162.2,880.424C3199.58,894.362 3238.57,909.524 3275.21,922.337C3293.53,928.743 3311.28,934.534 3327.88,939.334C3336.18,941.734 3344.24,943.892 3351.91,945.725C3359.59,947.559 3366.91,949.11 3373.84,950.267C3387.73,952.585 3401.19,955.459 3414.16,958.873C3427.14,962.287 3439.64,966.25 3451.47,970.548C3463.3,974.846 3474.48,979.488 3484.94,984.458C3495.4,989.428 3505.11,994.702 3513.98,1000.13C3522.85,1005.56 3530.87,1011.15 3537.93,1016.83C3544.98,1022.51 3551.1,1028.28 3556.11,1034C3561.12,1039.71 3565.03,1045.41 3567.77,1050.95C3569.15,1053.72 3570.27,1056.47 3571.03,1059.16C3571.8,1061.85 3572.22,1064.44 3572.35,1067.02C3572.63,1072.44 3572.31,1076.34 3571.11,1080.06C3569.91,1083.79 3567.8,1087.33 3564.52,1092.03L3613.78,1143.32Z" style="fill:rgb(234,193,2);fill-rule:nonzero;stroke:rgb(1,1,1);stroke-width:2.49px;"/>
                    <path id="path8847" d="M3613.78,1143.32L3564.52,1092.03C3567.8,1087.33 3569.91,1083.79 3571.11,1080.06C3572.31,1076.34 3572.63,1072.44 3572.35,1067.02C3572.22,1064.44 3571.8,1061.85 3571.03,1059.16C3570.27,1056.47 3569.15,1053.72 3567.77,1050.95C3565.03,1045.41 3561.12,1039.71 3556.11,1034C3551.1,1028.28 3544.98,1022.51 3537.93,1016.83C3530.87,1011.15 3522.85,1005.56 3513.98,1000.13C3505.11,994.702 3495.4,989.428 3484.94,984.458C3474.48,979.488 3463.3,974.846 3451.47,970.548C3439.64,966.25 3427.14,962.287 3414.16,958.873C3401.19,955.459 3387.73,952.585 3373.84,950.267C3366.91,949.11 3359.59,947.559 3351.91,945.725C3344.24,943.892 3336.18,941.734 3327.88,939.334C3311.28,934.534 3293.53,928.743 3275.21,922.337C3238.57,909.524 3199.58,894.362 3162.2,880.424C3146.74,874.658 3131.88,869.36 3117.29,864.255C3205.41,884.931 3316.15,924.496 3388.45,938.023C3506.78,960.162 3620.5,1031.28 3620.78,1103.28C3620.84,1118.08 3620.66,1131.34 3613.78,1143.32Z" style="fill:rgb(234,193,2);fill-rule:nonzero;stroke:rgb(1,1,1);stroke-width:2.49px;"/>
                </g>
                <g id="path8851" transform="matrix(0.431183,0.00432377,0.000911512,0.439773,-931.646,211.798)">
                    <path d="M2983.17,-135.392C2983.17,-122.069 2972.37,-111.269 2959.05,-111.269C2945.72,-111.269 2934.92,-122.069 2934.92,-135.392C2934.92,-148.714 2945.72,-159.515 2959.05,-159.515C2972.37,-159.515 2983.17,-148.714 2983.17,-135.392Z" style="fill:rgb(227,228,229);stroke:black;stroke-width:2.3px;stroke-linecap:round;stroke-linejoin:round;"/>
                </g>
                <g id="path8853" transform="matrix(0.431183,0.00432377,0.000911512,0.439773,-961.495,221.623)">
                    <path d="M2983.17,-135.392C2983.17,-122.069 2972.37,-111.269 2959.05,-111.269C2945.72,-111.269 2934.92,-122.069 2934.92,-135.392C2934.92,-148.714 2945.72,-159.515 2959.05,-159.515C2972.37,-159.515 2983.17,-148.714 2983.17,-135.392Z" style="fill:rgb(227,228,229);stroke:black;stroke-width:2.3px;stroke-linecap:round;stroke-linejoin:round;"/>
                </g>
                <g id="path8855" transform="matrix(0.431183,0.00432377,0.000911512,0.439773,-992.657,230.4)">
                    <path d="M2983.17,-135.392C2983.17,-122.069 2972.37,-111.269 2959.05,-111.269C2945.72,-111.269 2934.92,-122.069 2934.92,-135.392C2934.92,-148.714 2945.72,-159.515 2959.05,-159.515C2972.37,-159.515 2983.17,-148.714 2983.17,-135.392Z" style="fill:rgb(227,228,229);stroke:black;stroke-width:2.3px;stroke-linecap:round;stroke-linejoin:round;"/>
                </g>
                <g id="path8857" transform="matrix(0.431183,0.00432377,0.000911512,0.439773,-1025.31,238.547)">
                    <path d="M2983.17,-135.392C2983.17,-122.069 2972.37,-111.269 2959.05,-111.269C2945.72,-111.269 2934.92,-122.069 2934.92,-135.392C2934.92,-148.714 2945.72,-159.515 2959.05,-159.515C2972.37,-159.515 2983.17,-148.714 2983.17,-135.392Z" style="fill:rgb(227,228,229);stroke:black;stroke-width:2.3px;stroke-linecap:round;stroke-linejoin:round;"/>
                </g>
                <g id="path8859" transform="matrix(0.431183,0.00432377,0.000911512,0.439773,-1057.14,246.076)">
                    <path d="M2983.17,-135.392C2983.17,-122.069 2972.37,-111.269 2959.05,-111.269C2945.72,-111.269 2934.92,-122.069 2934.92,-135.392C2934.92,-148.714 2945.72,-159.515 2959.05,-159.515C2972.37,-159.515 2983.17,-148.714 2983.17,-135.392Z" style="fill:rgb(227,228,229);stroke:black;stroke-width:2.3px;stroke-linecap:round;stroke-linejoin:round;"/>
                </g>
                <g id="path8861" transform="matrix(0.431183,0.00432377,0.000911512,0.439773,-1089.54,255.303)">
                    <path d="M2983.17,-135.392C2983.17,-122.069 2972.37,-111.269 2959.05,-111.269C2945.72,-111.269 2934.92,-122.069 2934.92,-135.392C2934.92,-148.714 2945.72,-159.515 2959.05,-159.515C2972.37,-159.515 2983.17,-148.714 2983.17,-135.392Z" style="fill:rgb(227,228,229);stroke:black;stroke-width:2.3px;stroke-linecap:round;stroke-linejoin:round;"/>
                </g>
                <g id="path8863" transform="matrix(0.431183,0.00432377,0.000911512,0.439773,-1121.97,269.363)">
                    <path d="M2983.17,-135.392C2983.17,-122.069 2972.37,-111.269 2959.05,-111.269C2945.72,-111.269 2934.92,-122.069 2934.92,-135.392C2934.92,-148.714 2945.72,-159.515 2959.05,-159.515C2972.37,-159.515 2983.17,-148.714 2983.17,-135.392Z" style="fill:rgb(227,228,229);stroke:black;stroke-width:2.3px;stroke-linecap:round;stroke-linejoin:round;"/>
                </g>
                <g id="path8865" transform="matrix(0.431183,0.00432377,0.000911512,0.439773,-1147.42,291.26)">
                    <path d="M2983.17,-135.392C2983.17,-122.069 2972.37,-111.269 2959.05,-111.269C2945.72,-111.269 2934.92,-122.069 2934.92,-135.392C2934.92,-148.714 2945.72,-159.515 2959.05,-159.515C2972.37,-159.515 2983.17,-148.714 2983.17,-135.392Z" style="fill:rgb(227,228,229);stroke:black;stroke-width:2.3px;stroke-linecap:round;stroke-linejoin:round;"/>
                </g>
            </g>
        </g>
        <g transform="matrix(0.303031,0,0,0.303031,8.17674,-13.5405)">
            <g id="g12867" transform="matrix(-1,0,0,1,764.286,144.227)">
                <g id="g12869" transform="matrix(-0.411584,-0.00392431,0.000855236,0.392334,1614.02,-145.774)">
                    <path id="path12871" d="M3613.78,1143.32C3610.65,1148.79 3606.53,1154.06 3599.72,1158.98L3539.59,1096.32C3546.16,1086.92 3547.97,1082.15 3547.42,1071.3C3545.36,1030.07 3459.41,977.314 3348.3,958.769C3237.46,940.272 3048.9,839.669 2992.09,859.644L3014.11,823.314C3035.68,824.591 3089.11,857.642 3117.29,864.255C3131.88,869.36 3146.74,874.658 3162.2,880.424C3199.58,894.362 3238.57,909.524 3275.21,922.337C3293.53,928.743 3311.28,934.534 3327.88,939.334C3336.18,941.734 3344.24,943.892 3351.91,945.725C3359.59,947.559 3366.91,949.11 3373.84,950.267C3387.73,952.585 3401.19,955.459 3414.16,958.873C3427.14,962.287 3439.64,966.25 3451.47,970.548C3463.3,974.846 3474.48,979.488 3484.94,984.458C3495.4,989.428 3505.11,994.702 3513.98,1000.13C3522.85,1005.56 3530.87,1011.15 3537.93,1016.83C3544.98,1022.51 3551.1,1028.28 3556.11,1034C3561.12,1039.71 3565.03,1045.41 3567.77,1050.95C3569.15,1053.72 3570.27,1056.47 3571.03,1059.16C3571.8,1061.85 3572.22,1064.44 3572.35,1067.02C3572.63,1072.44 3572.31,1076.34 3571.11,1080.06C3569.91,1083.79 3567.8,1087.33 3564.52,1092.03L3613.78,1143.32Z" style="fill:rgb(234,193,2);fill-rule:nonzero;stroke:rgb(1,1,1);stroke-width:2.49px;"/>
                    <path id="path12873" d="M3613.78,1143.32L3564.52,1092.03C3567.8,1087.33 3569.91,1083.79 3571.11,1080.06C3572.31,1076.34 3572.63,1072.44 3572.35,1067.02C3572.22,1064.44 3571.8,1061.85 3571.03,1059.16C3570.27,1056.47 3569.15,1053.72 3567.77,1050.95C3565.03,1045.41 3561.12,1039.71 3556.11,1034C3551.1,1028.28 3544.98,1022.51 3537.93,1016.83C3530.87,1011.15 3522.85,1005.56 3513.98,1000.13C3505.11,994.702 3495.4,989.428 3484.94,984.458C3474.48,979.488 3463.3,974.846 3451.47,970.548C3439.64,966.25 3427.14,962.287 3414.16,958.873C3401.19,955.459 3387.73,952.585 3373.84,950.267C3366.91,949.11 3359.59,947.559 3351.91,945.725C3344.24,943.892 3336.18,941.734 3327.88,939.334C3311.28,934.534 3293.53,928.743 3275.21,922.337C3238.57,909.524 3199.58,894.362 3162.2,880.424C3146.74,874.658 3131.88,869.36 3117.29,864.255C3205.41,884.931 3316.15,924.496 3388.45,938.023C3506.78,960.162 3620.5,1031.28 3620.78,1103.28C3620.84,1118.08 3620.66,1131.34 3613.78,1143.32Z" style="fill:rgb(234,193,2);fill-rule:nonzero;stroke:rgb(1,1,1);stroke-width:2.49px;"/>
                </g>
                <g id="path12875" transform="matrix(0.431183,0.00432377,0.000911512,0.439773,-931.646,211.798)">
                    <path d="M2983.17,-135.392C2983.17,-122.069 2972.37,-111.269 2959.05,-111.269C2945.72,-111.269 2934.92,-122.069 2934.92,-135.392C2934.92,-148.714 2945.72,-159.515 2959.05,-159.515C2972.37,-159.515 2983.17,-148.714 2983.17,-135.392Z" style="fill:rgb(227,228,229);stroke:black;stroke-width:2.3px;stroke-linecap:round;stroke-linejoin:round;"/>
                </g>
                <g id="path12877" transform="matrix(0.431183,0.00432377,0.000911512,0.439773,-961.495,221.623)">
                    <path d="M2983.17,-135.392C2983.17,-122.069 2972.37,-111.269 2959.05,-111.269C2945.72,-111.269 2934.92,-122.069 2934.92,-135.392C2934.92,-148.714 2945.72,-159.515 2959.05,-159.515C2972.37,-159.515 2983.17,-148.714 2983.17,-135.392Z" style="fill:rgb(227,228,229);stroke:black;stroke-width:2.3px;stroke-linecap:round;stroke-linejoin:round;"/>
                </g>
                <g id="path12879" transform="matrix(0.431183,0.00432377,0.000911512,0.439773,-992.657,230.4)">
                    <path d="M2983.17,-135.392C2983.17,-122.069 2972.37,-111.269 2959.05,-111.269C2945.72,-111.269 2934.92,-122.069 2934.92,-135.392C2934.92,-148.714 2945.72,-159.515 2959.05,-159.515C2972.37,-159.515 2983.17,-148.714 2983.17,-135.392Z" style="fill:rgb(227,228,229);stroke:black;stroke-width:2.3px;stroke-linecap:round;stroke-linejoin:round;"/>
                </g>
                <g id="path12881" transform="matrix(0.431183,0.00432377,0.000911512,0.439773,-1025.31,238.547)">
                    <path d="M2983.17,-135.392C2983.17,-122.069 2972.37,-111.269 2959.05,-111.269C2945.72,-111.269 2934.92,-122.069 2934.92,-135.392C2934.92,-148.714 2945.72,-159.515 2959.05,-159.515C2972.37,-159.515 2983.17,-148.714 2983.17,-135.392Z" style="fill:rgb(227,228,229);stroke:black;stroke-width:2.3px;stroke-linecap:round;stroke-linejoin:round;"/>
                </g>
                <g id="path12883" transform="matrix(0.431183,0.00432377,0.000911512,0.439773,-1057.14,246.076)">
                    <path d="M2983.17,-135.392C2983.17,-122.069 2972.37,-111.269 2959.05,-111.269C2945.72,-111.269 2934.92,-122.069 2934.92,-135.392C2934.92,-148.714 2945.72,-159.515 2959.05,-159.515C2972.37,-159.515 2983.17,-148.714 2983.17,-135.392Z" style="fill:rgb(227,228,229);stroke:black;stroke-width:2.3px;stroke-linecap:round;stroke-linejoin:round;"/>
                </g>
                <g id="path12885" transform="matrix(0.431183,0.00432377,0.000911512,0.439773,-1089.54,255.303)">
                    <path d="M2983.17,-135.392C2983.17,-122.069 2972.37,-111.269 2959.05,-111.269C2945.72,-111.269 2934.92,-122.069 2934.92,-135.392C2934.92,-148.714 2945.72,-159.515 2959.05,-159.515C2972.37,-159.515 2983.17,-148.714 2983.17,-135.392Z" style="fill:rgb(227,228,229);stroke:black;stroke-width:2.3px;stroke-linecap:round;stroke-linejoin:round;"/>
                </g>
                <g id="path12887" transform="matrix(0.431183,0.00432377,0.000911512,0.439773,-1121.97,269.363)">
                    <path d="M2983.17,-135.392C2983.17,-122.069 2972.37,-111.269 2959.05,-111.269C2945.72,-111.269 2934.92,-122.069 2934.92,-135.392C2934.92,-148.714 2945.72,-159.515 2959.05,-159.515C2972.37,-159.515 2983.17,-148.714 2983.17,-135.392Z" style="fill:rgb(227,228,229);stroke:black;stroke-width:2.3px;stroke-linecap:round;stroke-linejoin:round;"/>
                </g>
                <g id="path12889" transform="matrix(0.431183,0.00432377,0.000911512,0.439773,-1147.42,291.26)">
                    <path d="M2983.17,-135.392C2983.17,-122.069 2972.37,-111.269 2959.05,-111.269C2945.72,-111.269 2934.92,-122.069 2934.92,-135.392C2934.92,-148.714 2945.72,-159.515 2959.05,-159.515C2972.37,-159.515 2983.17,-148.714 2983.17,-135.392Z" style="fill:rgb(227,228,229);stroke:black;stroke-width:2.3px;stroke-linecap:round;stroke-linejoin:round;"/>
                </g>
            </g>
        </g>
        <g transform="matrix(0.303031,0,0,0.303031,8.17674,-13.5405)">
            <g id="g7570" transform="matrix(0.703092,0.0128984,-0.00750674,0.837566,113.233,307.231)">
                <path id="path7568" d="M345.731,1.41C339.879,1.41 335.135,6.135 335.135,11.964C335.135,17.792 339.879,22.53 345.731,22.53C351.582,22.53 356.34,17.792 356.34,11.964C356.34,6.135 351.582,1.41 345.731,1.41Z" style="fill:rgb(227,228,229);stroke:black;stroke-width:1.3px;stroke-linecap:round;stroke-linejoin:round;"/>
                <path id="path7564" d="M325.883,14.077C320.032,14.077 315.287,18.802 315.287,24.631C315.287,30.459 320.032,35.197 325.883,35.197C331.735,35.197 336.492,30.459 336.492,24.631C336.492,18.802 331.735,14.077 325.883,14.077Z" style="fill:rgb(227,228,229);stroke:black;stroke-width:1.3px;stroke-linecap:round;stroke-linejoin:round;"/>
                <path id="path7560" d="M304.744,26.481C298.893,26.481 294.135,31.206 294.135,37.035C294.135,42.863 298.893,47.601 304.744,47.601C310.596,47.601 315.34,42.863 315.34,37.035C315.34,31.206 310.596,26.481 304.744,26.481Z" style="fill:rgb(227,228,229);stroke:black;stroke-width:1.3px;stroke-linecap:round;stroke-linejoin:round;"/>
                <path id="path7556" d="M283.724,36.562C277.872,36.562 273.115,41.287 273.115,47.116C273.115,52.944 277.872,57.682 283.724,57.682C289.576,57.682 294.32,52.944 294.32,47.116C294.32,41.287 289.576,36.562 283.724,36.562Z" style="fill:rgb(227,228,229);stroke:black;stroke-width:1.3px;stroke-linecap:round;stroke-linejoin:round;"/>
                <path id="path7552" d="M262.058,46.643C256.206,46.643 251.449,51.368 251.449,57.197C251.449,63.025 256.206,67.75 262.058,67.75C267.91,67.75 272.654,63.025 272.654,57.197C272.654,51.368 267.91,46.643 262.058,46.643Z" style="fill:rgb(227,228,229);stroke:black;stroke-width:1.3px;stroke-linecap:round;stroke-linejoin:round;"/>
                <path id="path7548" d="M240.392,57.617C234.54,57.617 229.783,62.355 229.783,68.183C229.783,74.012 234.54,78.737 240.392,78.737C246.244,78.737 250.988,74.012 250.988,68.183C250.988,62.355 246.244,57.617 240.392,57.617Z" style="fill:rgb(227,228,229);stroke:black;stroke-width:1.3px;stroke-linecap:round;stroke-linejoin:round;"/>
                <path id="path7544" d="M219.24,70.809C213.388,70.809 208.631,75.534 208.631,81.362C208.631,87.19 213.388,91.916 219.24,91.916C225.091,91.916 229.835,87.19 229.835,81.362C229.835,75.534 225.091,70.809 219.24,70.809Z" style="fill:rgb(227,228,229);stroke:black;stroke-width:1.3px;stroke-linecap:round;stroke-linejoin:round;"/>
                <path id="path7540" d="M200.552,90.708C194.7,90.708 189.956,95.433 189.956,101.261C189.956,107.09 194.7,111.828 200.552,111.828C206.404,111.828 211.161,107.09 211.161,101.261C211.161,95.433 206.404,90.708 200.552,90.708Z" style="fill:rgb(227,228,229);stroke:black;stroke-width:1.3px;stroke-linecap:round;stroke-linejoin:round;"/>
                <path id="path7536" d="M371.438,-6.813C365.204,-6.729 359.156,-4.928 359.156,-1.188C261.928,78.28 212.533,64.406 186.594,115.844C197.763,131.117 186.652,153.999 198.813,184.844L209.75,186.25C209.288,163.162 206.269,138.71 223.719,125.375C231.995,81.383 296.858,74.87 371.25,11.938L371.438,-6.813Z" style="fill:rgb(234,193,2);stroke:black;stroke-width:1.3px;"/>
            </g>
        </g>
        <g transform="matrix(0.303031,0,0,0.303031,8.17674,-13.5405)">
            <g id="g7740" transform="matrix(-0.703092,0.0128984,0.00750674,0.837566,651.052,307.231)">
                <path id="path7742" d="M345.731,1.41C339.879,1.41 335.135,6.135 335.135,11.964C335.135,17.792 339.879,22.53 345.731,22.53C351.582,22.53 356.34,17.792 356.34,11.964C356.34,6.135 351.582,1.41 345.731,1.41Z" style="fill:rgb(227,228,229);stroke:black;stroke-width:1.3px;stroke-linecap:round;stroke-linejoin:round;"/>
                <path id="path7744" d="M325.883,14.077C320.032,14.077 315.287,18.802 315.287,24.631C315.287,30.459 320.032,35.197 325.883,35.197C331.735,35.197 336.492,30.459 336.492,24.631C336.492,18.802 331.735,14.077 325.883,14.077Z" style="fill:rgb(227,228,229);stroke:black;stroke-width:1.3px;stroke-linecap:round;stroke-linejoin:round;"/>
                <path id="path7746" d="M304.744,26.481C298.893,26.481 294.135,31.206 294.135,37.035C294.135,42.863 298.893,47.601 304.744,47.601C310.596,47.601 315.34,42.863 315.34,37.035C315.34,31.206 310.596,26.481 304.744,26.481Z" style="fill:rgb(227,228,229);stroke:black;stroke-width:1.3px;stroke-linecap:round;stroke-linejoin:round;"/>
                <path id="path7748" d="M283.724,36.562C277.872,36.562 273.115,41.287 273.115,47.116C273.115,52.944 277.872,57.682 283.724,57.682C289.576,57.682 294.32,52.944 294.32,47.116C294.32,41.287 289.576,36.562 283.724,36.562Z" style="fill:rgb(227,228,229);stroke:black;stroke-width:1.3px;stroke-linecap:round;stroke-linejoin:round;"/>
                <path id="path7750" d="M262.058,46.643C256.206,46.643 251.449,51.368 251.449,57.197C251.449,63.025 256.206,67.75 262.058,67.75C267.91,67.75 272.654,63.025 272.654,57.197C272.654,51.368 267.91,46.643 262.058,46.643Z" style="fill:rgb(227,228,229);stroke:black;stroke-width:1.3px;stroke-linecap:round;stroke-linejoin:round;"/>
                <path id="path7752" d="M240.392,57.617C234.54,57.617 229.783,62.355 229.783,68.183C229.783,74.012 234.54,78.737 240.392,78.737C246.244,78.737 250.988,74.012 250.988,68.183C250.988,62.355 246.244,57.617 240.392,57.617Z" style="fill:rgb(227,228,229);stroke:black;stroke-width:1.3px;stroke-linecap:round;stroke-linejoin:round;"/>
                <path id="path7754" d="M219.24,70.809C213.388,70.809 208.631,75.534 208.631,81.362C208.631,87.19 213.388,91.916 219.24,91.916C225.091,91.916 229.835,87.19 229.835,81.362C229.835,75.534 225.091,70.809 219.24,70.809Z" style="fill:rgb(227,228,229);stroke:black;stroke-width:1.3px;stroke-linecap:round;stroke-linejoin:round;"/>
                <path id="path7756" d="M200.552,90.708C194.7,90.708 189.956,95.433 189.956,101.261C189.956,107.09 194.7,111.828 200.552,111.828C206.404,111.828 211.161,107.09 211.161,101.261C211.161,95.433 206.404,90.708 200.552,90.708Z" style="fill:rgb(227,228,229);stroke:black;stroke-width:1.3px;stroke-linecap:round;stroke-linejoin:round;"/>
                <path id="path7758" d="M371.438,-6.813C365.204,-6.729 359.156,-4.928 359.156,-1.188C261.928,78.28 212.533,64.406 186.594,115.844C197.763,131.117 186.652,153.999 198.813,184.844L209.75,186.25C209.288,163.162 206.269,138.71 223.719,125.375C231.995,81.383 296.858,74.87 371.25,11.938L371.438,-6.813Z" style="fill:rgb(234,193,2);stroke:black;stroke-width:1.3px;"/>
            </g>
        </g>
        <g transform="matrix(0.303031,0,0,0.303031,8.17674,-13.5405)">
            <path id="path4866" d="M381.367,350.666C412.668,350.666 456.468,360.097 470.736,369.612C485.003,379.127 496.886,383.056 510.331,385.936C523.775,388.816 531.381,388.55 542.609,387.76C553.837,386.969 575.644,394.47 592.633,406.493C609.621,418.515 608.815,430.72 617.346,443.587L553.477,565.667L210.808,565.667L146.939,443.587C155.508,430.72 155.692,418.515 172.662,406.493C189.631,394.47 211.457,386.969 222.681,387.76C233.904,388.55 241.517,388.816 254.964,385.936C268.41,383.056 280.291,379.127 294.559,369.612C308.826,360.097 350.066,350.666 381.367,350.666Z" style="fill:rgb(237,28,36);fill-rule:nonzero;stroke:black;stroke-width:1px;"/>
        </g>
        <g transform="matrix(0.303031,0,0,0.303031,8.17674,-13.5405)">
            <g id="g8891" transform="matrix(0.320498,0,0,0.320498,-566.072,383.483)">
                <g id="path8893" transform="matrix(1.07054,0,0,1.07054,-215.731,19.1265)">
                    <path d="M3028.49,-282.327C3028.49,-247.337 3000.12,-218.971 2965.13,-218.971C2930.14,-218.971 2901.77,-247.337 2901.77,-282.327C2901.77,-317.318 2930.14,-345.684 2965.13,-345.684C3000.12,-345.684 3028.49,-317.318 3028.49,-282.327Z" style="fill:rgb(0,113,188);stroke:black;stroke-width:2.91px;stroke-linecap:round;stroke-linejoin:round;"/>
                </g>
                <path id="path8895" d="M2949.89,-447.688L2949.89,-421.406L2925.17,-421.406L2925.17,-404.031L2949.89,-404.031L2949.89,-349.375L2967.23,-349.375L2967.23,-404.031L2991.95,-404.031L2991.95,-421.406L2967.23,-421.406L2967.23,-447.688L2949.89,-447.688Z" style="fill:rgb(234,193,2);stroke:black;stroke-width:3.12px;stroke-linecap:round;stroke-linejoin:round;"/>
                <path id="path8897" d="M2945.94,-355.156L2945.94,-305.344C2895,-304.315 2886.88,-297.148 2885.88,-295.938C2885.85,-295.954 2885.75,-296 2885.75,-296L2885.75,-270.5C2885.75,-270.5 2885.88,-270.579 2885.91,-270.594C2886.24,-270.222 2887.72,-268.834 2892.72,-267.156C2892.53,-267.925 2892.28,-268.658 2892.12,-269.437C2891.89,-270.602 2891.68,-271.779 2891.5,-272.969C2899.98,-275.85 2919.28,-280.219 2958.56,-280.219C2998.04,-280.219 3017.21,-275.882 3025.62,-273C3025.45,-271.8 3025.24,-270.612 3025,-269.437C3024.84,-268.648 3024.6,-267.904 3024.41,-267.125C3029.43,-268.811 3030.89,-270.218 3031.22,-270.594C3031.24,-270.578 3031.38,-270.5 3031.38,-270.5L3031.38,-270.75L3031.38,-295.75L3031.38,-296C3031.38,-296 3031.28,-295.955 3031.25,-295.938C3030.27,-297.149 3022.33,-304.318 2971.19,-305.344L2971.19,-355.156L2945.94,-355.156Z" style="fill:rgb(234,193,2);stroke:black;stroke-width:3.12px;stroke-linecap:round;stroke-linejoin:round;"/>
            </g>
        </g>
        <g transform="matrix(0.303031,0,0,0.303031,8.17674,-13.5405)">
            <g id="g7786" transform="matrix(-0.411186,-0.0347828,-0.0380595,0.432868,1592.5,509.597)">
                <g id="g7788" transform="matrix(-3.6417,0.290422,0.342784,1.8476,9955.71,-617.018)">
                    <path id="path7790" d="M2040.53,-9.342C2040.85,-3.939 2040.95,3.472 2038.69,7.656C2035.89,12.828 2036.05,13.18 2032.62,16.706L2017.75,-15.043C2019.88,-17.326 2021.11,-15.572 2021.15,-22.151C2021.25,-37.999 1996.06,-44.285 1974.22,-49.851C1947.18,-56.743 1912.32,-94.091 1901.16,-80.717C1904.87,-88.48 1912.7,-89.161 1922.5,-86.75C1922.75,-86.614 1922.95,-86.559 1923.2,-86.419C1926.68,-84.47 1930.39,-82.222 1934.2,-79.834C1938.02,-77.445 1941.93,-74.919 1945.9,-72.475C1949.87,-70.032 1953.87,-67.674 1957.82,-65.559C1961.78,-63.444 1965.7,-61.589 1969.45,-60.187C1971.33,-59.486 1973.14,-58.909 1974.93,-58.458C1976.72,-58.007 1978.5,-57.691 1980.19,-57.538C1983.62,-57.228 1986.99,-56.657 1990.27,-55.883C1993.56,-55.108 1996.72,-54.111 1999.77,-52.939C2002.81,-51.767 2005.72,-50.432 2008.45,-48.929C2011.17,-47.427 2013.71,-45.765 2016.03,-43.999C2018.34,-42.233 2020.43,-40.332 2022.24,-38.37C2024.06,-36.408 2025.62,-34.391 2026.84,-32.299C2028.07,-30.208 2028.95,-28.052 2029.49,-25.898C2030.04,-23.744 2030.23,-21.572 2030.01,-19.423C2029.21,-8.049 2028.63,-14.2 2024.91,-10.594L2034.75,5.706C2036.13,4.136 2037.23,2.275 2038.1,0.187C2038.97,-1.901 2039.64,-4.198 2040.12,-6.546C2040.32,-7.47 2040.38,-8.405 2040.53,-9.342Z" style="fill:rgb(234,193,2);fill-rule:nonzero;stroke:rgb(1,1,1);stroke-width:0.9px;"/>
                    <path id="path7792" d="M2040.53,-9.342C2040.38,-8.405 2040.32,-7.47 2040.12,-6.546C2039.64,-4.198 2038.97,-1.901 2038.1,0.187C2037.23,2.275 2036.13,4.136 2034.75,5.706L2024.4,-11.387C2029.83,-9.958 2030.77,-20.595 2029.49,-25.898C2028.95,-28.052 2028.07,-30.208 2026.84,-32.299C2025.62,-34.391 2024.06,-36.408 2022.24,-38.37C2020.43,-40.332 2018.34,-42.233 2016.03,-43.999C2013.71,-45.765 2011.17,-47.427 2008.45,-48.929C2005.72,-50.432 2002.81,-51.767 1999.77,-52.939C1996.72,-54.111 1993.56,-55.108 1990.27,-55.883C1986.99,-56.657 1983.62,-57.228 1980.19,-57.538C1978.5,-57.691 1976.72,-58.007 1974.93,-58.458C1973.14,-58.909 1971.33,-59.486 1969.45,-60.187C1965.7,-61.589 1961.78,-63.444 1957.82,-65.559C1953.87,-67.674 1949.87,-70.032 1945.9,-72.475C1941.93,-74.919 1938.02,-77.445 1934.2,-79.834C1930.39,-82.222 1926.68,-84.47 1923.2,-86.419C1922.95,-86.559 1922.75,-86.614 1922.5,-86.75C1939.94,-82.462 1963.63,-68.24 1981.81,-65.706C2009.6,-61.832 2045.47,-46.361 2040.53,-9.746C2040.51,-9.627 2040.52,-9.464 2040.53,-9.342Z" style="fill:rgb(234,193,2);fill-rule:nonzero;stroke:rgb(1,1,1);stroke-width:0.9px;"/>
                </g>
                <g id="g7794">
                    <g id="path7796" transform="matrix(1.04762,0,0,1.04762,-206.546,-89.8304)">
                        <path d="M2983.17,-135.392C2983.17,-122.069 2972.37,-111.269 2959.05,-111.269C2945.72,-111.269 2934.92,-122.069 2934.92,-135.392C2934.92,-148.714 2945.72,-159.515 2959.05,-159.515C2972.37,-159.515 2983.17,-148.714 2983.17,-135.392Z" style="fill:rgb(227,228,229);stroke:black;stroke-width:2.25px;stroke-linecap:round;stroke-linejoin:round;"/>
                    </g>
                    <g id="path7798" transform="matrix(1.04762,0,0,1.04762,-460.543,-22.9486)">
                        <path d="M2983.17,-135.392C2983.17,-122.069 2972.37,-111.269 2959.05,-111.269C2945.72,-111.269 2934.92,-122.069 2934.92,-135.392C2934.92,-148.714 2945.72,-159.515 2959.05,-159.515C2972.37,-159.515 2983.17,-148.714 2983.17,-135.392Z" style="fill:rgb(227,228,229);stroke:black;stroke-width:2.25px;stroke-linecap:round;stroke-linejoin:round;"/>
                    </g>
                    <g id="path7800" transform="matrix(1.04762,0,0,1.04762,-512.693,-6.3566)">
                        <path d="M2983.17,-135.392C2983.17,-122.069 2972.37,-111.269 2959.05,-111.269C2945.72,-111.269 2934.92,-122.069 2934.92,-135.392C2934.92,-148.714 2945.72,-159.515 2959.05,-159.515C2972.37,-159.515 2983.17,-148.714 2983.17,-135.392Z" style="fill:rgb(227,228,229);stroke:black;stroke-width:2.25px;stroke-linecap:round;stroke-linejoin:round;"/>
                    </g>
                    <g id="path7802" transform="matrix(1.04762,0,0,1.04762,-553.636,27.8648)">
                        <path d="M2983.17,-135.392C2983.17,-122.069 2972.37,-111.269 2959.05,-111.269C2945.72,-111.269 2934.92,-122.069 2934.92,-135.392C2934.92,-148.714 2945.72,-159.515 2959.05,-159.515C2972.37,-159.515 2983.17,-148.714 2983.17,-135.392Z" style="fill:rgb(227,228,229);stroke:black;stroke-width:2.25px;stroke-linecap:round;stroke-linejoin:round;"/>
                    </g>
                    <g id="path7804" transform="matrix(1.04762,0,0,1.04762,-256.013,-73.3247)">
                        <path d="M2983.17,-135.392C2983.17,-122.069 2972.37,-111.269 2959.05,-111.269C2945.72,-111.269 2934.92,-122.069 2934.92,-135.392C2934.92,-148.714 2945.72,-159.515 2959.05,-159.515C2972.37,-159.515 2983.17,-148.714 2983.17,-135.392Z" style="fill:rgb(227,228,229);stroke:black;stroke-width:2.25px;stroke-linecap:round;stroke-linejoin:round;"/>
                    </g>
                    <g id="path7806" transform="matrix(1.04762,0,0,1.04762,-305.38,-56.043)">
                        <path d="M2983.17,-135.392C2983.17,-122.069 2972.37,-111.269 2959.05,-111.269C2945.72,-111.269 2934.92,-122.069 2934.92,-135.392C2934.92,-148.714 2945.72,-159.515 2959.05,-159.515C2972.37,-159.515 2983.17,-148.714 2983.17,-135.392Z" style="fill:rgb(227,228,229);stroke:black;stroke-width:2.25px;stroke-linecap:round;stroke-linejoin:round;"/>
                    </g>
                    <g id="path7808" transform="matrix(1.04762,0,0,1.04762,-355.976,-44.7091)">
                        <path d="M2983.17,-135.392C2983.17,-122.069 2972.37,-111.269 2959.05,-111.269C2945.72,-111.269 2934.92,-122.069 2934.92,-135.392C2934.92,-148.714 2945.72,-159.515 2959.05,-159.515C2972.37,-159.515 2983.17,-148.714 2983.17,-135.392Z" style="fill:rgb(227,228,229);stroke:black;stroke-width:2.25px;stroke-linecap:round;stroke-linejoin:round;"/>
                    </g>
                    <g id="path7810" transform="matrix(1.04762,0,0,1.04762,-406.679,-33.9438)">
                        <path d="M2983.17,-135.392C2983.17,-122.069 2972.37,-111.269 2959.05,-111.269C2945.72,-111.269 2934.92,-122.069 2934.92,-135.392C2934.92,-148.714 2945.72,-159.515 2959.05,-159.515C2972.37,-159.515 2983.17,-148.714 2983.17,-135.392Z" style="fill:rgb(227,228,229);stroke:black;stroke-width:2.25px;stroke-linecap:round;stroke-linejoin:round;"/>
                    </g>
                </g>
            </g>
        </g>
        <g transform="matrix(0.303031,0,0,0.303031,8.17674,-13.5405)">
            <g id="g8912" transform="matrix(0.411186,-0.0347828,0.0380595,0.432868,-828.214,509.597)">
                <g id="g8914" transform="matrix(-3.6417,0.290422,0.342784,1.8476,9955.71,-617.018)">
                    <path id="path8916" d="M2040.53,-9.342C2040.85,-3.939 2040.95,3.472 2038.69,7.656C2035.89,12.828 2036.05,13.18 2032.62,16.706L2017.75,-15.043C2019.88,-17.326 2021.11,-15.572 2021.15,-22.151C2021.25,-37.999 1996.06,-44.285 1974.22,-49.851C1947.18,-56.743 1912.32,-94.091 1901.16,-80.717C1904.87,-88.48 1912.7,-89.161 1922.5,-86.75C1922.75,-86.614 1922.95,-86.559 1923.2,-86.419C1926.68,-84.47 1930.39,-82.222 1934.2,-79.834C1938.02,-77.445 1941.93,-74.919 1945.9,-72.475C1949.87,-70.032 1953.87,-67.674 1957.82,-65.559C1961.78,-63.444 1965.7,-61.589 1969.45,-60.187C1971.33,-59.486 1973.14,-58.909 1974.93,-58.458C1976.72,-58.007 1978.5,-57.691 1980.19,-57.538C1983.62,-57.228 1986.99,-56.657 1990.27,-55.883C1993.56,-55.108 1996.72,-54.111 1999.77,-52.939C2002.81,-51.767 2005.72,-50.432 2008.45,-48.929C2011.17,-47.427 2013.71,-45.765 2016.03,-43.999C2018.34,-42.233 2020.43,-40.332 2022.24,-38.37C2024.06,-36.408 2025.62,-34.391 2026.84,-32.299C2028.07,-30.208 2028.95,-28.052 2029.49,-25.898C2030.04,-23.744 2030.23,-21.572 2030.01,-19.423C2029.21,-8.049 2028.63,-14.2 2024.91,-10.594L2034.75,5.706C2036.13,4.136 2037.23,2.275 2038.1,0.187C2038.97,-1.901 2039.64,-4.198 2040.12,-6.546C2040.32,-7.47 2040.38,-8.405 2040.53,-9.342Z" style="fill:rgb(234,193,2);fill-rule:nonzero;stroke:rgb(1,1,1);stroke-width:0.9px;"/>
                    <path id="path8918" d="M2040.53,-9.342C2040.38,-8.405 2040.32,-7.47 2040.12,-6.546C2039.64,-4.198 2038.97,-1.901 2038.1,0.187C2037.23,2.275 2036.13,4.136 2034.75,5.706L2024.4,-11.387C2029.83,-9.958 2030.77,-20.595 2029.49,-25.898C2028.95,-28.052 2028.07,-30.208 2026.84,-32.299C2025.62,-34.391 2024.06,-36.408 2022.24,-38.37C2020.43,-40.332 2018.34,-42.233 2016.03,-43.999C2013.71,-45.765 2011.17,-47.427 2008.45,-48.929C2005.72,-50.432 2002.81,-51.767 1999.77,-52.939C1996.72,-54.111 1993.56,-55.108 1990.27,-55.883C1986.99,-56.657 1983.62,-57.228 1980.19,-57.538C1978.5,-57.691 1976.72,-58.007 1974.93,-58.458C1973.14,-58.909 1971.33,-59.486 1969.45,-60.187C1965.7,-61.589 1961.78,-63.444 1957.82,-65.559C1953.87,-67.674 1949.87,-70.032 1945.9,-72.475C1941.93,-74.919 1938.02,-77.445 1934.2,-79.834C1930.39,-82.222 1926.68,-84.47 1923.2,-86.419C1922.95,-86.559 1922.75,-86.614 1922.5,-86.75C1939.94,-82.462 1963.63,-68.24 1981.81,-65.706C2009.6,-61.832 2045.47,-46.361 2040.53,-9.746C2040.51,-9.627 2040.52,-9.464 2040.53,-9.342Z" style="fill:rgb(234,193,2);fill-rule:nonzero;stroke:rgb(1,1,1);stroke-width:0.9px;"/>
                </g>
                <g id="g8920">
                    <g id="path8922" transform="matrix(1.04762,0,0,1.04762,-206.546,-89.8304)">
                        <path d="M2983.17,-135.392C2983.17,-122.069 2972.37,-111.269 2959.05,-111.269C2945.72,-111.269 2934.92,-122.069 2934.92,-135.392C2934.92,-148.714 2945.72,-159.515 2959.05,-159.515C2972.37,-159.515 2983.17,-148.714 2983.17,-135.392Z" style="fill:rgb(227,228,229);stroke:black;stroke-width:2.25px;stroke-linecap:round;stroke-linejoin:round;"/>
                    </g>
                    <g id="path8924" transform="matrix(1.04762,0,0,1.04762,-460.543,-22.9486)">
                        <path d="M2983.17,-135.392C2983.17,-122.069 2972.37,-111.269 2959.05,-111.269C2945.72,-111.269 2934.92,-122.069 2934.92,-135.392C2934.92,-148.714 2945.72,-159.515 2959.05,-159.515C2972.37,-159.515 2983.17,-148.714 2983.17,-135.392Z" style="fill:rgb(227,228,229);stroke:black;stroke-width:2.25px;stroke-linecap:round;stroke-linejoin:round;"/>
                    </g>
                    <g id="path8926" transform="matrix(1.04762,0,0,1.04762,-512.693,-6.3566)">
                        <path d="M2983.17,-135.392C2983.17,-122.069 2972.37,-111.269 2959.05,-111.269C2945.72,-111.269 2934.92,-122.069 2934.92,-135.392C2934.92,-148.714 2945.72,-159.515 2959.05,-159.515C2972.37,-159.515 2983.17,-148.714 2983.17,-135.392Z" style="fill:rgb(227,228,229);stroke:black;stroke-width:2.25px;stroke-linecap:round;stroke-linejoin:round;"/>
                    </g>
                    <g id="path8928" transform="matrix(1.04762,0,0,1.04762,-553.636,27.8648)">
                        <path d="M2983.17,-135.392C2983.17,-122.069 2972.37,-111.269 2959.05,-111.269C2945.72,-111.269 2934.92,-122.069 2934.92,-135.392C2934.92,-148.714 2945.72,-159.515 2959.05,-159.515C2972.37,-159.515 2983.17,-148.714 2983.17,-135.392Z" style="fill:rgb(227,228,229);stroke:black;stroke-width:2.25px;stroke-linecap:round;stroke-linejoin:round;"/>
                    </g>
                    <g id="path8930" transform="matrix(1.04762,0,0,1.04762,-256.013,-73.3247)">
                        <path d="M2983.17,-135.392C2983.17,-122.069 2972.37,-111.269 2959.05,-111.269C2945.72,-111.269 2934.92,-122.069 2934.92,-135.392C2934.92,-148.714 2945.72,-159.515 2959.05,-159.515C2972.37,-159.515 2983.17,-148.714 2983.17,-135.392Z" style="fill:rgb(227,228,229);stroke:black;stroke-width:2.25px;stroke-linecap:round;stroke-linejoin:round;"/>
                    </g>
                    <g id="path8932" transform="matrix(1.04762,0,0,1.04762,-305.38,-56.043)">
                        <path d="M2983.17,-135.392C2983.17,-122.069 2972.37,-111.269 2959.05,-111.269C2945.72,-111.269 2934.92,-122.069 2934.92,-135.392C2934.92,-148.714 2945.72,-159.515 2959.05,-159.515C2972.37,-159.515 2983.17,-148.714 2983.17,-135.392Z" style="fill:rgb(227,228,229);stroke:black;stroke-width:2.25px;stroke-linecap:round;stroke-linejoin:round;"/>
                    </g>
                    <g id="path8934" transform="matrix(1.04762,0,0,1.04762,-355.976,-44.7091)">
                        <path d="M2983.17,-135.392C2983.17,-122.069 2972.37,-111.269 2959.05,-111.269C2945.72,-111.269 2934.92,-122.069 2934.92,-135.392C2934.92,-148.714 2945.72,-159.515 2959.05,-159.515C2972.37,-159.515 2983.17,-148.714 2983.17,-135.392Z" style="fill:rgb(227,228,229);stroke:black;stroke-width:2.25px;stroke-linecap:round;stroke-linejoin:round;"/>
                    </g>
                    <g id="path8936" transform="matrix(1.04762,0,0,1.04762,-406.679,-33.9438)">
                        <path d="M2983.17,-135.392C2983.17,-122.069 2972.37,-111.269 2959.05,-111.269C2945.72,-111.269 2934.92,-122.069 2934.92,-135.392C2934.92,-148.714 2945.72,-159.515 2959.05,-159.515C2972.37,-159.515 2983.17,-148.714 2983.17,-135.392Z" style="fill:rgb(227,228,229);stroke:black;stroke-width:2.25px;stroke-linecap:round;stroke-linejoin:round;"/>
                    </g>
                </g>
            </g>
        </g>
        <g transform="matrix(0.303031,0,0,0.303031,8.17674,-13.5405)">
            <g id="g8938" transform="matrix(0.974376,0,0,0.962568,-1463.39,393.642)">
                <path id="path8940" d="M1883.55,-88.131C1879.21,-86.068 1875.84,-82.992 1874.76,-79.179C1873.51,-73.354 1872.72,-66.703 1872.58,-59.639C1872.56,-58.905 1872.62,-58.19 1872.62,-57.468C1872.62,-56.632 1872.42,-55.734 1872.4,-54.881C1872.05,-40.06 1869.42,-26.965 1865.63,-18.954L1894.22,2.697L1922.51,-18.954C1918.74,-26.965 1916.1,-40.06 1915.78,-54.881C1915.76,-55.734 1915.55,-56.632 1915.52,-57.468C1915.52,-58.19 1915.61,-58.905 1915.59,-59.639C1915.42,-66.703 1914.66,-73.354 1913.42,-79.179C1912.31,-83.038 1908.95,-86.161 1904.63,-88.22C1904.93,-85.612 1905.31,-83.116 1905.37,-80.22C1905.38,-79.748 1905.33,-79.285 1905.33,-78.822C1905.34,-78.285 1905.43,-46.298 1905.44,-45.75C1905.52,-40.994 1905.93,-36.506 1906.54,-32.575C1907.16,-28.644 1907.98,-25.272 1908.97,-22.701L1894.14,-8.783L1879.17,-22.701C1880.16,-25.272 1881.02,-28.644 1881.63,-32.575C1882.25,-36.506 1882.61,-40.994 1882.7,-45.75C1882.71,-46.298 1882.85,-78.285 1882.85,-78.822C1882.85,-79.285 1882.8,-79.748 1882.81,-80.22C1882.86,-83.085 1883.25,-85.548 1883.55,-88.131L1883.55,-88.131Z" style="fill:rgb(234,193,2);fill-rule:nonzero;stroke:black;stroke-width:1.03px;"/>
                <path id="path8942" d="M1883.55,-88.131C1883.26,-85.548 1882.86,-83.085 1882.81,-80.22C1882.8,-79.748 1882.85,-79.285 1882.85,-78.822C1882.85,-78.285 1882.71,-46.298 1882.7,-45.75C1882.61,-40.994 1882.25,-36.506 1881.63,-32.575C1881.02,-28.644 1880.16,-25.272 1879.17,-22.701L1894.14,-8.783L1908.97,-22.701C1907.98,-25.272 1907.16,-28.644 1906.54,-32.575C1905.93,-36.506 1905.52,-40.994 1905.44,-45.75C1905.43,-46.298 1905.34,-78.285 1905.33,-78.822C1905.33,-79.285 1905.37,-79.748 1905.37,-80.22C1905.31,-83.116 1904.93,-85.612 1904.63,-88.22C1901.57,-89.676 1898.1,-90.659 1894.26,-90.659L1894.22,-90.659C1890.31,-90.659 1886.7,-89.632 1883.55,-88.131L1883.55,-88.131Z" style="fill:rgb(234,193,2);fill-rule:nonzero;stroke:black;stroke-width:1.03px;"/>
            </g>
        </g>
        <g transform="matrix(0.303031,0,0,0.303031,8.17674,-13.5405)">
            <g id="g8944" transform="matrix(0.46092,0,0,0.49469,-981.41,428.201)">
                <g id="path8946" transform="matrix(1.04762,0,0,1.04762,-141.625,-91.4793)">
                    <path d="M2983.17,-135.392C2983.17,-122.069 2972.37,-111.269 2959.05,-111.269C2945.72,-111.269 2934.92,-122.069 2934.92,-135.392C2934.92,-148.714 2945.72,-159.515 2959.05,-159.515C2972.37,-159.515 2983.17,-148.714 2983.17,-135.392Z" style="fill:rgb(227,228,229);stroke:black;stroke-width:2px;stroke-linecap:round;stroke-linejoin:round;"/>
                </g>
                <g id="path8948" transform="matrix(1.04762,0,0,1.04762,-141.625,-76.5462)">
                    <path d="M2983.17,-135.392C2983.17,-122.069 2972.37,-111.269 2959.05,-111.269C2945.72,-111.269 2934.92,-122.069 2934.92,-135.392C2934.92,-148.714 2945.72,-159.515 2959.05,-159.515C2972.37,-159.515 2983.17,-148.714 2983.17,-135.392Z" style="fill:rgb(227,228,229);stroke:black;stroke-width:2px;stroke-linecap:round;stroke-linejoin:round;"/>
                </g>
                <g id="path8950" transform="matrix(1.04762,0,0,1.04762,-141.625,-63.6234)">
                    <path d="M2983.17,-135.392C2983.17,-122.069 2972.37,-111.269 2959.05,-111.269C2945.72,-111.269 2934.92,-122.069 2934.92,-135.392C2934.92,-148.714 2945.72,-159.515 2959.05,-159.515C2972.37,-159.515 2983.17,-148.714 2983.17,-135.392Z" style="fill:rgb(227,228,229);stroke:black;stroke-width:2px;stroke-linecap:round;stroke-linejoin:round;"/>
                </g>
                <g id="path8952" transform="matrix(1.04762,0,0,1.04762,-141.625,-55.8697)">
                    <path d="M2983.17,-135.392C2983.17,-122.069 2972.37,-111.269 2959.05,-111.269C2945.72,-111.269 2934.92,-122.069 2934.92,-135.392C2934.92,-148.714 2945.72,-159.515 2959.05,-159.515C2972.37,-159.515 2983.17,-148.714 2983.17,-135.392Z" style="fill:rgb(227,228,229);stroke:black;stroke-width:2px;stroke-linecap:round;stroke-linejoin:round;"/>
                </g>
                <g id="path8954" transform="matrix(1.04762,0,0,1.04762,-141.625,-49.2646)">
                    <path d="M2983.17,-135.392C2983.17,-122.069 2972.37,-111.269 2959.05,-111.269C2945.72,-111.269 2934.92,-122.069 2934.92,-135.392C2934.92,-148.714 2945.72,-159.515 2959.05,-159.515C2972.37,-159.515 2983.17,-148.714 2983.17,-135.392Z" style="fill:rgb(227,228,229);stroke:black;stroke-width:2px;stroke-linecap:round;stroke-linejoin:round;"/>
                </g>
                <g id="path8956" transform="matrix(1.04762,0,0,1.04762,-141.625,-41.2237)">
                    <path d="M2983.17,-135.392C2983.17,-122.069 2972.37,-111.269 2959.05,-111.269C2945.72,-111.269 2934.92,-122.069 2934.92,-135.392C2934.92,-148.714 2945.72,-159.515 2959.05,-159.515C2972.37,-159.515 2983.17,-148.714 2983.17,-135.392Z" style="fill:rgb(227,228,229);stroke:black;stroke-width:2px;stroke-linecap:round;stroke-linejoin:round;"/>
                </g>
                <g id="path8958" transform="matrix(1.04762,0,0,1.04762,-141.625,-27.4394)">
                    <path d="M2983.17,-135.392C2983.17,-122.069 2972.37,-111.269 2959.05,-111.269C2945.72,-111.269 2934.92,-122.069 2934.92,-135.392C2934.92,-148.714 2945.72,-159.515 2959.05,-159.515C2972.37,-159.515 2983.17,-148.714 2983.17,-135.392Z" style="fill:rgb(227,228,229);stroke:black;stroke-width:2px;stroke-linecap:round;stroke-linejoin:round;"/>
                </g>
                <g id="path8960" transform="matrix(1.04762,0,0,1.04762,-141.625,4.43701)">
                    <path d="M2983.17,-135.392C2983.17,-122.069 2972.37,-111.269 2959.05,-111.269C2945.72,-111.269 2934.92,-122.069 2934.92,-135.392C2934.92,-148.714 2945.72,-159.515 2959.05,-159.515C2972.37,-159.515 2983.17,-148.714 2983.17,-135.392Z" style="fill:rgb(227,228,229);stroke:black;stroke-width:2px;stroke-linecap:round;stroke-linejoin:round;"/>
                </g>
            </g>
        </g>
        <g transform="matrix(0.303031,0,0,0.303031,8.17674,-13.5405)">
            <g id="g8962" transform="matrix(0.392631,0,0,0.372498,-778.843,429.599)">
                <g id="g8964">
                    <path id="path8966" d="M2417.1,230.144C2437.78,270.635 2462.51,322.513 2481.62,316.168C2485.74,314.432 2487.08,304.352 2480.92,271.745L2443.55,198.061C2438.37,189.685 2423.68,196.028 2422.74,204.76L2417.1,230.144Z" style="fill:rgb(234,193,2);stroke:black;stroke-width:2.61px;"/>
                    <path id="path8968" d="M2448.75,274.906L2455.56,254.938C2441.75,237.163 2420.4,204.756 2397.53,164.469C2392.8,156.132 2376.61,161.051 2380.47,170.313C2411.34,228.774 2433.27,259.529 2448.75,274.906Z" style="fill:rgb(234,193,2);stroke:black;stroke-width:2.61px;"/>
                </g>
                <g id="g8970">
                    <path id="path8972" d="M3496.76,230.144C3476.09,270.635 3451.36,322.513 3432.24,316.168C3428.12,314.432 3426.78,304.352 3432.95,271.745L3470.32,198.061C3475.49,189.685 3490.18,196.028 3491.12,204.76L3496.76,230.144Z" style="fill:rgb(234,193,2);stroke:black;stroke-width:2.61px;"/>
                    <path id="path8974" d="M3458.09,255.188L3464.91,275.156C3480.39,259.855 3502.39,229.057 3533.41,170.313C3537.27,161.051 3521.07,156.132 3516.34,164.469C3493.37,204.945 3471.9,237.469 3458.09,255.188Z" style="fill:rgb(234,193,2);stroke:black;stroke-width:2.61px;"/>
                </g>
            </g>
        </g>
        <g transform="matrix(0.303031,0,0,0.303031,8.17674,-13.5405)">
            <g id="g8976" transform="matrix(1,0,0,0.948723,-950.952,315.763)">
                <g id="g8978" transform="matrix(0.392631,0,0,0.367647,172.098,125.471)">
                    <path id="path8980" d="M2259.22,-21.284L2272.73,-31.983C2311.46,-42.015 2345.99,-5.156 2345.76,10.683C2355.44,1.877 2365.12,4.895 2374.8,5.403C2369.07,24.324 2374.66,38.418 2367.93,58.728C2376.9,61.512 2383.92,65.466 2385.88,72.455L2394.86,66.647L2405.95,66.119C2408.07,118.873 2390.87,107.278 2394.33,126.836L2412.81,104.133L2432.87,106.245C2442.69,108.109 2445.5,119.707 2456.1,121.028C2448.62,131.144 2444.07,148.939 2437.1,161.154C2428.54,167.366 2421.02,166.327 2413.87,162.737C2437.2,171.325 2443.32,191.475 2452.41,202.335C2442.85,202.863 2434.27,203.919 2430.23,204.447C2444.97,225.475 2453.39,242.306 2467.72,254.076L2459.27,255.66L2415.45,234.013L2378.49,195.999L2333.09,125.78L2331.5,14.907C2308.35,3.113 2311.9,-24.252 2259.22,-21.284Z" style="fill:rgb(234,193,2);stroke:black;stroke-width:2.7px;stroke-linecap:round;stroke-linejoin:round;"/>
                    <path id="path8982" d="M2257.84,-20.617C2320.89,-14.029 2320.85,75.113 2333.42,127.79L2373.74,196.057C2399.24,220.695 2415.72,251.347 2431.49,254.96C2446.77,258.46 2445.71,251.941 2461.25,255.618C2430.82,242.092 2444.76,210.871 2381.53,191.933C2401.97,180.607 2401.97,211.811 2442.92,202.929C2431.69,174.841 2407.55,173.486 2396.65,163.069C2413.36,157.672 2415.19,168.411 2427.35,163.527C2440.84,158.104 2437.73,137.192 2448.42,123.209C2434.43,117.035 2423.05,98.644 2405.81,107.631C2399.82,112.6 2391,129.367 2381.07,133.288C2376.89,110.908 2390.94,108.9 2393.9,97.552C2396.83,86.307 2392.14,82.89 2394.82,66.855C2349.39,83.617 2366.53,113.939 2345.78,127.223C2345.57,95.009 2354.68,108.709 2371.45,73.269C2365.12,63.848 2360.66,65.626 2355.41,62.731C2363.74,44.73 2356.21,33.769 2365.03,8.668C2348.36,3.096 2342.68,12.134 2338,17.831C2336.31,2.239 2299.84,-48.125 2257.84,-20.617Z" style="fill:rgb(234,193,2);stroke:black;stroke-width:2.7px;stroke-linejoin:round;"/>
                    <path id="path8984" d="M2348.03,39.813C2334.59,69.908 2335.94,100.002 2336.92,130.096M2369.56,114.123C2366.85,129.243 2357.31,137.523 2347.34,145.374M2416.78,136.346C2392.83,138.123 2391.07,153.398 2355.67,158.569M2362.61,168.292C2379.77,171.736 2396.73,175.379 2408.45,184.265M2371.64,189.821C2395.01,218.018 2414.62,220.555 2421.64,234.962" style="fill:none;fill-rule:nonzero;stroke:black;stroke-width:1.35px;"/>
                    <g id="g8986" transform="matrix(-0.927826,0.610427,0.610427,0.927826,3844.27,-1752.9)">
                        <path id="path8988" d="M2069.06,730.688C2069.29,730.696 2069.49,730.781 2069.72,730.781C2082.48,730.781 2092.81,718.015 2092.81,702.281C2092.81,686.547 2082.48,673.781 2069.72,673.781C2069.49,673.781 2069.29,673.867 2069.06,673.875L2069.06,730.688Z" style="fill:rgb(227,228,229);fill-rule:nonzero;stroke:black;stroke-width:2.43px;"/>
                        <path id="path8990" d="M2066.29,668.732L2073.24,668.732L2073.24,735.261L2066.29,735.261C2063.83,709.571 2063.42,685.136 2066.29,668.732Z" style="fill:rgb(234,193,2);fill-rule:nonzero;stroke:black;stroke-width:2.43px;"/>
                    </g>
                </g>
                <g id="g8992" transform="matrix(-0.392631,0,0,0.367647,2494.09,125.471)">
                    <path id="path8994" d="M2259.22,-21.284L2272.73,-31.983C2311.46,-42.015 2345.99,-5.156 2345.76,10.683C2355.44,1.877 2365.12,4.895 2374.8,5.403C2369.07,24.324 2374.66,38.418 2367.93,58.728C2376.9,61.512 2383.92,65.466 2385.88,72.455L2394.86,66.647L2405.95,66.119C2408.07,118.873 2390.87,107.278 2394.33,126.836L2412.81,104.133L2432.87,106.245C2442.69,108.109 2445.5,119.707 2456.1,121.028C2448.62,131.144 2444.07,148.939 2437.1,161.154C2428.54,167.366 2421.02,166.327 2413.87,162.737C2437.2,171.325 2443.32,191.475 2452.41,202.335C2442.85,202.863 2434.27,203.919 2430.23,204.447C2444.97,225.475 2453.39,242.306 2467.72,254.076L2459.27,255.66L2415.45,234.013L2378.49,195.999L2333.09,125.78L2331.5,14.907C2308.35,3.113 2311.9,-24.252 2259.22,-21.284Z" style="fill:rgb(234,193,2);stroke:black;stroke-width:2.7px;stroke-linecap:round;stroke-linejoin:round;"/>
                    <path id="path8996" d="M2257.84,-20.617C2320.89,-14.029 2320.85,75.113 2333.42,127.79L2373.74,196.057C2399.24,220.695 2415.72,251.347 2431.49,254.96C2446.77,258.46 2445.71,251.941 2461.25,255.618C2430.82,242.092 2444.76,210.871 2381.53,191.933C2401.97,180.607 2401.97,211.811 2442.92,202.929C2431.69,174.841 2407.55,173.486 2396.65,163.069C2413.36,157.672 2415.19,168.411 2427.35,163.527C2440.84,158.104 2437.73,137.192 2448.42,123.209C2434.43,117.035 2423.05,98.644 2405.81,107.631C2399.82,112.6 2391,129.367 2381.07,133.288C2376.89,110.908 2390.94,108.9 2393.9,97.552C2396.83,86.307 2392.14,82.89 2394.82,66.855C2349.39,83.617 2366.53,113.939 2345.78,127.223C2345.57,95.009 2354.68,108.709 2371.45,73.269C2365.12,63.848 2360.66,65.626 2355.41,62.731C2363.74,44.73 2356.21,33.769 2365.03,8.668C2348.36,3.096 2342.68,12.134 2338,17.831C2336.31,2.239 2299.84,-48.125 2257.84,-20.617Z" style="fill:rgb(234,193,2);stroke:black;stroke-width:2.7px;stroke-linejoin:round;"/>
                    <path id="path8998" d="M2348.03,39.813C2334.59,69.908 2335.94,100.002 2336.92,130.096M2369.56,114.123C2366.85,129.243 2357.31,137.523 2347.34,145.374M2416.78,136.346C2392.83,138.123 2391.07,153.398 2355.67,158.569M2362.61,168.292C2379.77,171.736 2396.73,175.379 2408.45,184.265M2371.64,189.821C2395.01,218.018 2414.62,220.555 2421.64,234.962" style="fill:none;fill-rule:nonzero;stroke:black;stroke-width:1.35px;"/>
                    <g id="g9000" transform="matrix(-0.927826,0.610427,0.610427,0.927826,3844.27,-1752.9)">
                        <path id="path9002" d="M2069.06,730.688C2069.29,730.696 2069.49,730.781 2069.72,730.781C2082.48,730.781 2092.81,718.015 2092.81,702.281C2092.81,686.547 2082.48,673.781 2069.72,673.781C2069.49,673.781 2069.29,673.867 2069.06,673.875L2069.06,730.688Z" style="fill:rgb(227,228,229);fill-rule:nonzero;stroke:black;stroke-width:2.43px;"/>
                        <path id="path9004" d="M2066.29,668.732L2073.24,668.732L2073.24,735.261L2066.29,735.261C2063.83,709.571 2063.42,685.136 2066.29,668.732Z" style="fill:rgb(234,193,2);fill-rule:nonzero;stroke:black;stroke-width:2.43px;"/>
                    </g>
                </g>
            </g>
        </g>
        <g transform="matrix(0.303031,0,0,0.303031,8.17674,-13.5405)">
            <path id="path9006" d="M382.192,459.305C380.823,459.322 379.44,460.184 379.394,461.831C378.134,478.135 371.462,503.547 346.695,508.149C322.131,512.714 300.473,478.015 299.555,464.218C299.569,462.158 297.902,461.358 296.218,461.447C294.309,461.548 292.371,462.787 292.844,464.613C296.507,483.451 292.672,507.446 275.666,511.734C258.731,516.005 240.23,495.964 227.041,470.981C225.82,466.257 218.788,468.108 220.133,471.575C230.88,497.549 227.249,515.83 219.507,519.685C210.105,522.55 190.494,499.683 179.484,479.525C177.611,476.797 170.716,478.214 172.355,481.713C180.368,497.199 188.326,512.682 188.698,528.427C187.779,527.514 186.589,526.151 185.287,524.562L182.612,532.001C189.073,538.091 192.664,537.698 194.465,536.087C198.068,532.863 198.139,526.196 193.312,511.339C202.199,520.308 216.169,531.311 225.164,525.249C234.158,519.187 234.987,508.26 234.17,495.03C245.173,508.693 261.903,522.789 276.917,519.289C292.129,515.743 298.769,502.338 300.807,485.287C309.189,500.742 326.462,518.411 347.751,515.704C368.202,513.104 379.95,490.29 382.143,482.784C384.335,490.29 396.095,513.104 416.547,515.704C437.835,518.411 455.097,500.742 463.479,485.287C465.517,502.338 472.156,515.743 487.368,519.289C502.382,522.789 519.112,508.693 530.116,495.03C529.298,508.26 530.127,519.187 539.122,525.249C548.116,531.311 562.087,520.308 570.974,511.339C566.146,526.196 566.217,532.863 569.82,536.087C571.613,537.691 575.182,538.097 581.587,532.094L578.912,524.656C577.643,526.201 576.489,527.532 575.587,528.427C575.959,512.682 583.917,497.199 591.93,481.713C593.569,478.214 586.686,476.797 584.814,479.525C573.804,499.683 554.192,522.55 544.79,519.685C537.049,515.83 533.405,497.549 544.152,471.575C545.498,468.108 538.466,466.257 537.244,470.981C524.055,495.964 505.566,516.005 488.632,511.734C471.626,507.446 467.778,483.451 471.442,464.613C472.331,461.175 464.713,459.824 464.742,464.218C463.825,478.015 442.154,512.714 417.59,508.149C392.824,503.547 386.164,478.135 384.903,461.831C384.915,460.117 383.56,459.289 382.192,459.305Z" style="fill:rgb(234,193,2);stroke:black;stroke-width:1px;"/>
        </g>
        <g transform="matrix(0.303031,0,0,0.303031,8.17674,-13.5405)">
            <g id="g9008" transform="matrix(0.392631,0,0,0.372498,-778.84,429.599)">
                <g id="g9010" transform="matrix(1,0,0,1.00579,0.81,-1346.08)">
                    <g id="path9012" transform="matrix(1,0,0,1,5.77412,34.3062)">
                        <path d="M3198.05,1390.38C3198.05,1406.65 3184.86,1419.84 3168.59,1419.84C3152.32,1419.84 3139.13,1406.65 3139.13,1390.38C3139.13,1374.11 3152.32,1360.92 3168.59,1360.92C3184.86,1360.92 3198.05,1374.11 3198.05,1390.38Z" style="fill:rgb(227,228,229);stroke:black;stroke-width:2.61px;stroke-linecap:round;stroke-linejoin:round;"/>
                    </g>
                    <path id="path9014" d="M3153.87,1446.21C3164.64,1450.27 3175.85,1451.63 3189.09,1450.59C3188.35,1458.21 3181.24,1455.12 3182.3,1461.62C3183.36,1468.13 3154.98,1465.95 3157.58,1459.08C3160.17,1452.2 3152.5,1453.78 3153.87,1446.21Z" style="fill:rgb(234,193,2);stroke:black;stroke-width:2.61px;"/>
                </g>
                <g id="g9016" transform="matrix(-1,0,0,1.00579,5913.05,-1346.08)">
                    <g id="path9018" transform="matrix(1,0,0,1,5.77412,34.3062)">
                        <path d="M3198.05,1390.38C3198.05,1406.65 3184.86,1419.84 3168.59,1419.84C3152.32,1419.84 3139.13,1406.65 3139.13,1390.38C3139.13,1374.11 3152.32,1360.92 3168.59,1360.92C3184.86,1360.92 3198.05,1374.11 3198.05,1390.38Z" style="fill:rgb(227,228,229);stroke:black;stroke-width:2.61px;stroke-linecap:round;stroke-linejoin:round;"/>
                    </g>
                    <path id="path9020" d="M3153.87,1446.21C3164.64,1450.27 3175.85,1451.63 3189.09,1450.59C3188.35,1458.21 3181.24,1455.12 3182.3,1461.62C3183.36,1468.13 3154.98,1465.95 3157.58,1459.08C3160.17,1452.2 3152.5,1453.78 3153.87,1446.21Z" style="fill:rgb(234,193,2);stroke:black;stroke-width:2.61px;"/>
                </g>
            </g>
        </g>
        <g transform="matrix(0.303031,0,0,0.303031,8.17674,-13.5405)">
            <g id="g9022" transform="matrix(0.392631,0,0,0.372498,-778.818,429.599)">
                <g id="g9024" transform="matrix(-0.941893,0.335392,0.329732,0.935336,4949.33,-2266.45)">
                    <g id="path9026" transform="matrix(1,0,0,1,5.77412,34.3062)">
                        <path d="M3198.05,1390.38C3198.05,1406.65 3184.86,1419.84 3168.59,1419.84C3152.32,1419.84 3139.13,1406.65 3139.13,1390.38C3139.13,1374.11 3152.32,1360.92 3168.59,1360.92C3184.86,1360.92 3198.05,1374.11 3198.05,1390.38Z" style="fill:rgb(227,228,229);stroke:black;stroke-width:2.63px;stroke-linecap:round;stroke-linejoin:round;"/>
                    </g>
                    <path id="path9028" d="M3153.87,1446.21C3164.64,1450.27 3175.85,1451.63 3189.09,1450.59C3188.35,1458.21 3181.24,1455.12 3182.3,1461.62C3183.36,1468.13 3154.98,1465.95 3157.58,1459.08C3160.17,1452.2 3152.5,1453.78 3153.87,1446.21Z" style="fill:rgb(234,193,2);stroke:black;stroke-width:2.63px;"/>
                </g>
                <g id="g9030" transform="matrix(0.941893,0.335392,-0.329732,0.935336,964.412,-2266.45)">
                    <g id="path9032" transform="matrix(1,0,0,1,5.77412,34.3062)">
                        <path d="M3198.05,1390.38C3198.05,1406.65 3184.86,1419.84 3168.59,1419.84C3152.32,1419.84 3139.13,1406.65 3139.13,1390.38C3139.13,1374.11 3152.32,1360.92 3168.59,1360.92C3184.86,1360.92 3198.05,1374.11 3198.05,1390.38Z" style="fill:rgb(227,228,229);stroke:black;stroke-width:2.63px;stroke-linecap:round;stroke-linejoin:round;"/>
                    </g>
                    <path id="path9034" d="M3153.87,1446.21C3164.64,1450.27 3175.85,1451.63 3189.09,1450.59C3188.35,1458.21 3181.24,1455.12 3182.3,1461.62C3183.36,1468.13 3154.98,1465.95 3157.58,1459.08C3160.17,1452.2 3152.5,1453.78 3153.87,1446.21Z" style="fill:rgb(234,193,2);stroke:black;stroke-width:2.63px;"/>
                </g>
            </g>
        </g>
        <g transform="matrix(0.303031,0,0,0.303031,8.17674,-13.5405)">
            <g id="g9036" transform="matrix(0.393219,0,0,0.403086,-781.395,415.77)">
                <path id="path9038" d="M2841.49,4.131C2841.49,4.131 2870.37,-1.02 2885.99,22.305C2901.33,45.223 2938.75,42.824 2938.75,42.824L2922.92,94.415L2820.91,55.721C2820.2,55.721 2827.17,45.987 2840.26,46.928C2853.35,47.868 2860.76,64.761 2880.71,56.894L2841.49,4.131Z" style="fill:rgb(234,193,2);stroke:black;stroke-width:2.51px;"/>
                <path id="path9040" d="M3076.51,4.131C3076.51,4.131 3047.64,-1.02 3032.02,22.305C3016.68,45.223 2979.26,42.824 2979.26,42.824L2995.09,94.415L3097.1,55.721C3097.81,55.721 3090.84,45.987 3077.75,46.928C3064.66,47.868 3057.25,64.761 3037.3,56.894L3076.51,4.131Z" style="fill:rgb(234,193,2);stroke:black;stroke-width:2.51px;"/>
                <path id="path9042" d="M2958.75,-131.547C2941.2,-112.59 2923.32,-91.283 2922.35,-63.281C2908.28,-77.947 2894.2,-67.691 2880.13,-65.063C2887.2,-55.548 2879.93,-29.471 2889.5,-11.688C2879.26,-10.882 2874.64,-1.845 2868.41,3.531C2872.6,19.129 2920.46,21.337 2928.78,49.844C2876.68,44.648 2893.18,6.957 2840.85,4.125C2832.48,47.227 2865.81,38.694 2868.41,62.156C2852.5,65.14 2848.52,49.066 2834.66,49.719C2815.23,50.633 2806.82,71.883 2794.53,79.156C2813.48,84.316 2820.59,102.352 2839.6,106.719C2849.87,109.078 2854.71,90.913 2870.75,99.094C2855.02,120.919 2839.32,114.506 2847.28,145.406C2906.86,150.664 2882.51,110.073 2922.35,116.094C2862.18,153.117 2895.24,167.187 2880.13,195.844C2911.13,183.206 2922.28,191.853 2959,165.531C2995.73,191.853 3006.88,183.206 3037.88,195.844C3022.77,167.187 3055.83,153.117 2995.66,116.094C3035.5,110.073 3011.15,150.664 3070.72,145.406C3078.69,114.506 3062.99,120.919 3047.25,99.094C3063.3,90.913 3068.14,109.078 3078.41,106.719C3097.42,102.352 3104.53,84.316 3123.47,79.156C3111.19,71.883 3102.78,50.633 3083.35,49.719C3069.49,49.066 3065.51,65.14 3049.6,62.156C3052.2,38.694 3085.53,47.227 3077.16,4.125C3024.82,6.957 3041.32,44.648 2989.22,49.844C2997.55,21.337 3045.41,19.129 3049.6,3.531C3043.37,-1.845 3038.75,-10.882 3028.5,-11.688C3038.08,-29.471 3030.81,-55.548 3037.88,-65.063C3023.81,-67.691 3009.73,-77.947 2995.66,-63.281C2994.69,-91.283 2976.8,-112.59 2959.25,-131.547L2959,-131.797L2958.75,-131.547Z" style="fill:rgb(234,193,2);stroke:black;stroke-width:2.51px;"/>
                <path id="path9044" d="M2959.41,53.359C2957.59,50.094 2959.41,-104.412 2959.41,-104.412M2949.9,108.652C2945.2,127.18 2928.47,156.84 2908.86,167.359M2929.46,92.018C2913.9,92.807 2885.1,108.46 2873.58,115.804M2926.74,84.958C2871.73,89.956 2849.28,67.738 2832.26,74.662M2929.01,68.946C2929.01,68.946 2915.51,65.006 2899.67,60.675C2889.49,57.892 2883.33,45.434 2876.83,38.588M2951.87,50.006C2951.87,50.006 2951.05,39.704 2938.72,10.834C2926.78,-17.145 2911.25,-32.067 2911.25,-32.067M2968.11,108.652C2972.81,127.18 2989.53,156.84 3009.15,167.359M2988.55,92.018C3004.11,92.807 3032.91,108.46 3044.43,115.804M2991.27,84.958C3046.28,89.956 3068.73,67.738 3085.75,74.662M2988.99,68.946C2988.99,68.946 3002.5,65.006 3018.34,60.675C3028.52,57.892 3034.68,45.434 3041.18,38.588M2966.14,50.006C2966.14,50.006 2966.96,39.704 2979.28,10.834C2991.23,-17.145 3006.76,-32.067 3006.76,-32.067" style="fill:none;fill-rule:nonzero;stroke:black;stroke-width:1.26px;stroke-linecap:round;"/>
                <g id="g9046">
                    <g id="path9048" transform="matrix(1.31145,0,0,1.2234,-925.15,-19.0906)">
                        <path d="M2989.92,81.517C2989.92,96.735 2977.59,109.071 2962.37,109.071C2947.15,109.071 2934.81,96.735 2934.81,81.517C2934.81,66.299 2947.15,53.963 2962.37,53.963C2977.59,53.963 2989.92,66.299 2989.92,81.517Z" style="fill:rgb(234,193,2);stroke:black;stroke-width:1.98px;stroke-linecap:round;stroke-linejoin:round;"/>
                    </g>
                    <g id="path9050" transform="matrix(1.04255,0,0,0.972312,-128.572,1.37765)">
                        <path d="M2989.92,81.517C2989.92,96.735 2977.59,109.071 2962.37,109.071C2947.15,109.071 2934.81,96.735 2934.81,81.517C2934.81,66.299 2947.15,53.963 2962.37,53.963C2977.59,53.963 2989.92,66.299 2989.92,81.517Z" style="fill:rgb(227,228,229);stroke:black;stroke-width:2.49px;stroke-linecap:round;stroke-linejoin:round;"/>
                    </g>
                </g>
            </g>
        </g>
        <g transform="matrix(0.303031,0,0,0.303031,8.17674,-13.5405)">
            <path id="path9052" d="M381.968,514.308C325.356,514.872 268.093,514.925 212.493,526.248C200.086,529.987 182.347,532.075 177.69,545.318C176.162,556.38 190.19,561.068 198.953,564.108C240.698,576.071 284.806,577.084 328.058,578.954C395.349,580.243 463.073,580.766 529.865,571.832C548.112,568.467 568.204,566.39 583.209,555.052C592.169,546.673 582.251,534.957 572.347,532.548C538.37,520.101 501.311,518.765 465.375,516.231C437.602,514.784 409.78,514.326 381.968,514.308Z" style="fill:rgb(234,193,2);stroke:black;stroke-width:1px;"/>
        </g>
        <g transform="matrix(0.303031,0,0,0.303031,8.17674,-13.5405)">
            <path id="path9054" d="M382.143,527.905C351.286,527.905 325.263,528.479 303.33,529.476C298.944,529.676 294.709,529.898 290.643,530.128C241.872,532.895 215.72,537.786 201.705,542.254C200.537,542.627 199.43,542.986 198.424,543.351C193.413,545.173 190.331,546.916 188.455,548.332C188.087,548.611 187.769,548.878 187.487,549.133C187.194,549.396 186.949,549.639 186.737,549.874C185.484,551.257 185.518,552.097 185.518,552.097L196.174,588.831L568.112,588.831L578.768,552.097C578.768,552.097 578.802,551.257 577.549,549.874C577.337,549.639 577.092,549.396 576.799,549.133C575.085,547.583 571.877,545.537 565.862,543.351C565.853,543.348 565.839,543.354 565.83,543.351C552.759,538.607 526.479,533.126 473.643,530.128C473.633,530.128 473.622,530.129 473.612,530.128C469.546,529.898 465.342,529.676 460.955,529.476C439.022,528.479 413.002,527.905 382.143,527.905Z" style="fill:rgb(234,193,2);stroke:black;stroke-width:1px;"/>
        </g>
        <g transform="matrix(0.303031,0,0,0.303031,8.17674,-13.5405)">
            <g id="g9056" transform="matrix(0.41409,0,0,0.392857,-278.313,269.692)">
                <g id="path9058" transform="matrix(1.33459,0,0,1.44733,-589.588,-320.197)">
                    <path d="M1796.35,707.071C1796.35,719.81 1786.02,730.136 1773.28,730.136C1760.54,730.136 1750.22,719.81 1750.22,707.071C1750.22,694.332 1760.54,684.005 1773.28,684.005C1786.02,684.005 1796.35,694.332 1796.35,707.071Z" style="fill:rgb(234,193,2);stroke:black;stroke-width:1.78px;stroke-linecap:round;stroke-linejoin:round;"/>
                </g>
                <g id="path9060" transform="matrix(1.30451,0,0,1.44733,-532.961,-320.197)">
                    <path d="M1796.35,707.071C1796.35,719.81 1786.02,730.136 1773.28,730.136C1760.54,730.136 1750.22,719.81 1750.22,707.071C1750.22,694.332 1760.54,684.005 1773.28,684.005C1786.02,684.005 1796.35,694.332 1796.35,707.071Z" style="fill:rgb(234,193,2);stroke:black;stroke-width:1.8px;stroke-linecap:round;stroke-linejoin:round;"/>
                </g>
                <g id="path9062" transform="matrix(1.15414,0,0,1.25188,-265.608,-181.999)">
                    <path d="M1796.35,707.071C1796.35,719.81 1786.02,730.136 1773.28,730.136C1760.54,730.136 1750.22,719.81 1750.22,707.071C1750.22,694.332 1760.54,684.005 1773.28,684.005C1786.02,684.005 1796.35,694.332 1796.35,707.071Z" style="fill:rgb(227,228,229);stroke:black;stroke-width:2.06px;stroke-linecap:round;stroke-linejoin:round;"/>
                </g>
            </g>
        </g>
        <g transform="matrix(0.303031,0,0,0.303031,8.17674,-13.5405)">
            <g id="g9064" transform="matrix(-0.41409,0,0,0.392857,1042.6,269.692)">
                <g id="path9066" transform="matrix(1.33459,0,0,1.44733,-589.588,-320.197)">
                    <path d="M1796.35,707.071C1796.35,719.81 1786.02,730.136 1773.28,730.136C1760.54,730.136 1750.22,719.81 1750.22,707.071C1750.22,694.332 1760.54,684.005 1773.28,684.005C1786.02,684.005 1796.35,694.332 1796.35,707.071Z" style="fill:rgb(234,193,2);stroke:black;stroke-width:1.78px;stroke-linecap:round;stroke-linejoin:round;"/>
                </g>
                <g id="path9068" transform="matrix(1.30451,0,0,1.44733,-532.961,-320.197)">
                    <path d="M1796.35,707.071C1796.35,719.81 1786.02,730.136 1773.28,730.136C1760.54,730.136 1750.22,719.81 1750.22,707.071C1750.22,694.332 1760.54,684.005 1773.28,684.005C1786.02,684.005 1796.35,694.332 1796.35,707.071Z" style="fill:rgb(234,193,2);stroke:black;stroke-width:1.8px;stroke-linecap:round;stroke-linejoin:round;"/>
                </g>
                <g id="path9070" transform="matrix(1.15414,0,0,1.25188,-265.608,-181.999)">
                    <path d="M1796.35,707.071C1796.35,719.81 1786.02,730.136 1773.28,730.136C1760.54,730.136 1750.22,719.81 1750.22,707.071C1750.22,694.332 1760.54,684.005 1773.28,684.005C1786.02,684.005 1796.35,694.332 1796.35,707.071Z" style="fill:rgb(227,228,229);stroke:black;stroke-width:2.06px;stroke-linecap:round;stroke-linejoin:round;"/>
                </g>
            </g>
        </g>
        <g transform="matrix(0.303031,0,0,0.303031,8.17674,-13.5405)">
            <g id="g9072" transform="matrix(-0.4051,0.0736134,0,0.393981,1028.61,132.565)">
                <path id="path9074" d="M1881,701.453L1931.39,667.056L1934.62,667.056L1886.56,701.453L1881,701.453Z" style="fill:none;fill-rule:nonzero;stroke:black;stroke-width:2.5px;stroke-linecap:round;stroke-linejoin:round;"/>
                <path id="path9076" d="M1881,701.453L1931.39,735.851L1934.62,735.851L1886.56,701.453L1881,701.453Z" style="fill:none;fill-rule:nonzero;stroke:black;stroke-width:2.5px;stroke-linecap:round;stroke-linejoin:round;"/>
                <path id="path9078" d="M1934.69,735.732L1979.96,702.335L1934.8,667.232" style="fill:none;fill-rule:nonzero;stroke:black;stroke-width:2.5px;stroke-linecap:round;stroke-linejoin:round;"/>
                <g id="g9080" transform="matrix(1,0,0,1,2,0)">
                    <path id="path9082" d="M1897.05,701.806L1933.21,728.442L1968.84,701.63L1933.03,675.523L1897.05,701.806Z" style="fill:rgb(0,143,76);stroke:black;stroke-width:2.5px;stroke-linecap:round;stroke-linejoin:round;"/>
                    <path id="path9084" d="M1921.37,701.89L1940.49,715.918L1959.34,701.797L1940.4,688.047L1921.37,701.89Z" style="fill:none;fill-rule:nonzero;stroke:black;stroke-width:1.5px;stroke-linecap:round;stroke-linejoin:round;"/>
                    <path id="path9086" d="M1933.03,728.266L1940.53,715.918" style="fill:none;fill-rule:nonzero;stroke:black;stroke-width:1.5px;stroke-linecap:round;stroke-linejoin:round;"/>
                    <path id="path9088" d="M1968.31,701.63L1959.27,701.762" style="fill:none;fill-rule:nonzero;stroke:black;stroke-width:1.5px;stroke-linecap:round;stroke-linejoin:round;"/>
                    <path id="path9090" d="M1921.39,701.806L1897.75,701.806" style="fill:none;fill-rule:nonzero;stroke:black;stroke-width:1.5px;stroke-linecap:round;stroke-linejoin:round;"/>
                    <path id="path9092" d="M1940.49,688.18L1933.03,675.523" style="fill:none;fill-rule:nonzero;stroke:black;stroke-width:1.5px;stroke-linecap:round;stroke-linejoin:round;"/>
                </g>
            </g>
        </g>
        <g transform="matrix(0.303031,0,0,0.303031,8.17674,-13.5405)">
            <g id="g9094" transform="matrix(0.4051,0.0736134,0,0.393981,-264.32,132.565)">
                <path id="path9096" d="M1881,701.453L1931.39,667.056L1934.62,667.056L1886.56,701.453L1881,701.453Z" style="fill:none;fill-rule:nonzero;stroke:black;stroke-width:2.5px;stroke-linecap:round;stroke-linejoin:round;"/>
                <path id="path9098" d="M1881,701.453L1931.39,735.851L1934.62,735.851L1886.56,701.453L1881,701.453Z" style="fill:none;fill-rule:nonzero;stroke:black;stroke-width:2.5px;stroke-linecap:round;stroke-linejoin:round;"/>
                <path id="path9100" d="M1934.69,735.732L1979.96,702.335L1934.8,667.232" style="fill:none;fill-rule:nonzero;stroke:black;stroke-width:2.5px;stroke-linecap:round;stroke-linejoin:round;"/>
                <g id="g9102" transform="matrix(1,0,0,1,2,0)">
                    <path id="path9104" d="M1897.05,701.806L1933.21,728.442L1968.84,701.63L1933.03,675.523L1897.05,701.806Z" style="fill:rgb(0,143,76);stroke:black;stroke-width:2.5px;stroke-linecap:round;stroke-linejoin:round;"/>
                    <path id="path9106" d="M1921.37,701.89L1940.49,715.918L1959.34,701.797L1940.4,688.047L1921.37,701.89Z" style="fill:none;fill-rule:nonzero;stroke:black;stroke-width:1.25px;stroke-linecap:round;stroke-linejoin:round;"/>
                    <path id="path9108" d="M1933.03,728.266L1940.53,715.918" style="fill:none;fill-rule:nonzero;stroke:black;stroke-width:1.25px;stroke-linecap:round;stroke-linejoin:round;"/>
                    <path id="path9110" d="M1968.31,701.63L1959.27,701.762" style="fill:none;fill-rule:nonzero;stroke:black;stroke-width:1.25px;stroke-linecap:round;stroke-linejoin:round;"/>
                    <path id="path9112" d="M1921.39,701.806L1897.75,701.806" style="fill:none;fill-rule:nonzero;stroke:black;stroke-width:1.25px;stroke-linecap:round;stroke-linejoin:round;"/>
                    <path id="path9114" d="M1940.49,688.18L1933.03,675.523" style="fill:none;fill-rule:nonzero;stroke:black;stroke-width:1.25px;stroke-linecap:round;stroke-linejoin:round;"/>
                </g>
            </g>
        </g>
        <g transform="matrix(0.303031,0,0,0.303031,8.17674,-13.5405)">
            <g id="g9116" transform="matrix(0.41409,0,0,0.392857,-278.506,268.212)">
                <path id="rect9118" d="M1564.32,669.169L1626.52,669.169C1644.55,669.169 1659.07,684.296 1659.07,703.087C1659.07,721.878 1644.55,737.005 1626.52,737.005L1564.32,737.005C1546.29,737.005 1531.77,721.878 1531.77,703.087C1531.77,684.296 1546.29,669.169 1564.32,669.169Z" style="fill:rgb(234,193,2);fill-rule:nonzero;stroke:black;stroke-width:2.48px;"/>
                <path id="rect9120" d="M1567.44,673.797L1623.4,673.797C1639.63,673.797 1652.69,686.861 1652.69,703.087C1652.69,719.314 1639.63,732.377 1623.4,732.377L1567.44,732.377C1551.21,732.377 1538.15,719.314 1538.15,703.087C1538.15,686.861 1551.21,673.797 1567.44,673.797Z" style="fill:rgb(237,28,36);fill-rule:nonzero;stroke:black;stroke-width:2.48px;"/>
            </g>
        </g>
        <g transform="matrix(0.303031,0,0,0.303031,8.17674,-13.5405)">
            <path id="path9122" d="M184.49,524.869L181.79,530.531C182.444,531.19 183.132,531.832 183.844,532.463L185.631,525.743C185.334,525.346 184.883,524.805 184.49,524.869ZM579.85,524.851C579.361,524.859 579.336,524.874 578.501,525.909L580.591,532.347C581.132,531.879 581.679,531.357 582.209,530.815L579.85,524.851Z" style="fill:rgb(234,193,2);stroke:black;stroke-opacity:0;stroke-width:1px;"/>
        </g>
        <g transform="matrix(0.303031,0,0,0.303031,8.17674,-13.5405)">
            <g id="g9124" transform="matrix(1,0,0,0.948723,-0.51294,33.5157)">
                <g id="g9126" transform="matrix(0.392631,0,0,0.392631,-779.603,412.545)">
                    <path id="path9128" d="M2485.23,-95.278L2496.75,-100.22C2531.32,-105.485 2547.96,-66.293 2551.18,-44.181C2564.46,-48.643 2582.15,-53.756 2602.05,-48.95C2597.06,-27.845 2600.81,-24.752 2592.91,3.115C2612.58,6.95 2613.18,13.536 2618.75,17.423C2594.75,37.417 2559.22,43.064 2557.54,68.295L2596.09,61.539C2614.51,46.304 2614.36,16.372 2651.34,15.833C2655.18,59.547 2630.41,46.44 2621.13,77.834C2650.41,80.219 2711.18,75.758 2708.97,84.988C2681.81,102.722 2683.74,108.328 2669.62,117.976L2660.48,118.771C2651.25,114.6 2645.79,99.853 2631.86,108.835C2631.86,108.834 2639.56,114.564 2661.27,123.54C2682.31,132.236 2678.36,155.335 2678.36,155.335C2647.38,160.125 2635.05,151.743 2621.53,144.207C2657.92,170.505 2647.98,187.367 2668.43,208.593L2663.26,208.195C2622.09,210.292 2601.14,192.468 2574.23,183.156C2577.74,194.246 2559.27,213.229 2553.96,224.49L2549.99,224.49L2526.94,170.438C2524.05,177.75 2519.66,176.04 2515.81,177.592L2491.17,111.219C2474.99,105.706 2477.57,93.937 2476.46,83.398C2480.24,83.865 2480.3,82.1 2488.78,85.385L2477.65,57.565L2475.67,38.09C2480.13,41.106 2488.42,39.021 2487.19,49.616C2490.21,61.726 2494.74,70.822 2498.72,81.014L2511.83,37.295L2487.19,-38.219L2501.1,-43.783C2495.85,-60.951 2522.54,-80.4 2485.23,-95.278Z" style="fill:rgb(234,193,2);stroke:black;stroke-width:2.61px;"/>
                    <path id="path9130" d="M2483.46,-94.74C2519.09,-107.491 2540.97,-73.143 2542.77,-44.706C2559.86,-49.575 2576.99,-53.924 2594.99,-47.871C2584,-23.762 2594.04,-10.327 2581.8,7.51C2603.41,9.345 2598.57,14.142 2610.28,18.586C2577.16,47.152 2548.14,41.15 2545.94,72.385C2599.45,55.904 2577.96,43.277 2602.9,28.608C2614.38,21.63 2628.18,16.968 2646.15,16.477C2650.04,63.157 2620.72,48.633 2612.92,78.187C2639.88,74.527 2643.45,59.179 2659.67,56.762C2675.9,54.345 2691.01,72.174 2708.39,82.934C2677.23,95.12 2673.92,120.289 2658.48,118.103C2644.27,116.368 2642.53,105.386 2625.58,112.998C2640.6,126.399 2666.38,124.433 2673.58,153.61C2636.33,166.173 2610.32,136.684 2573.36,135.677C2664.15,160.73 2631.1,188.351 2663.55,208.464C2638.71,205.696 2618.37,212.858 2572.31,186.311C2573.6,198.966 2556.86,208.853 2549.1,224.814C2544.3,199.634 2519.52,187.147 2524.31,147.808C2514.89,148.936 2529.75,176.489 2514.29,177.345C2501.22,166.078 2500.28,150.889 2500.05,140.424C2492.49,131.282 2502.9,157.02 2471.04,116.162C2468.22,111.922 2472.78,85.458 2476.32,83.461C2478.91,90.04 2481.37,96.904 2487.39,96.647C2485.29,86.913 2483.07,77.256 2476.84,70.275C2473.54,68.192 2474.09,50.204 2475.79,38.629C2487.11,52.529 2479.16,74.004 2497.94,77.659C2496.82,42.426 2466.78,53.254 2483.7,19.641C2481.41,1.533 2480.9,-55.91 2493.19,-33.63C2492.13,-63.929 2506.14,-85.337 2483.46,-94.74Z" style="fill:rgb(234,193,2);stroke:black;stroke-width:2.61px;stroke-linecap:round;stroke-linejoin:round;"/>
                    <path id="path9132" d="M2515.24,74.655C2499.61,-14.366 2526.04,-41.009 2508.24,-83.955M2566.68,-13.578C2532.86,15.833 2524.79,45.244 2522.17,74.655M2554.76,102.475C2597.94,105.409 2618.09,84.577 2662.86,83.398M2551.58,91.347C2586.44,86.39 2595.43,66.907 2606.43,51.603M2556.35,111.219C2585.01,111.9 2609.57,120.045 2622.32,129.502M2543.63,135.066C2572.32,167.813 2590.54,165.653 2613.58,179.579M2538.07,134.271C2533.81,159.849 2543.88,176.462 2546.81,189.118M2515.01,129.502C2511.87,134.042 2509.68,139.534 2508.66,146.194M2504.68,113.604C2491.59,118.751 2493.19,112.119 2478.45,115.194M2504.68,93.732C2499.38,92.891 2494.08,90.267 2488.78,81.014M2510.24,77.834C2506.33,55 2501.82,31.288 2489.58,-4.039" style="fill:none;fill-rule:nonzero;stroke:black;stroke-width:1.31px;stroke-linecap:round;stroke-linejoin:round;"/>
                    <g id="g9134" transform="matrix(-0.748008,0.507597,0.481371,0.883198,3520.47,-1419.32)">
                        <g id="path9136" transform="matrix(1.33459,0,0,1.44733,-589.588,-320.197)">
                            <path d="M1796.35,707.071C1796.35,719.81 1786.02,730.136 1773.28,730.136C1760.54,730.136 1750.22,719.81 1750.22,707.071C1750.22,694.332 1760.54,684.005 1773.28,684.005C1786.02,684.005 1796.35,694.332 1796.35,707.071Z" style="fill:rgb(234,193,2);stroke:black;stroke-width:1.98px;stroke-linecap:round;stroke-linejoin:round;"/>
                        </g>
                        <g id="path9138" transform="matrix(1.30451,0,0,1.44733,-532.961,-320.197)">
                            <path d="M1796.35,707.071C1796.35,719.81 1786.02,730.136 1773.28,730.136C1760.54,730.136 1750.22,719.81 1750.22,707.071C1750.22,694.332 1760.54,684.005 1773.28,684.005C1786.02,684.005 1796.35,694.332 1796.35,707.071Z" style="fill:rgb(234,193,2);stroke:black;stroke-width:2px;stroke-linecap:round;stroke-linejoin:round;"/>
                        </g>
                        <g id="path9140" transform="matrix(1.15414,0,0,1.25188,-265.608,-181.999)">
                            <path d="M1796.35,707.071C1796.35,719.81 1786.02,730.136 1773.28,730.136C1760.54,730.136 1750.22,719.81 1750.22,707.071C1750.22,694.332 1760.54,684.005 1773.28,684.005C1786.02,684.005 1796.35,694.332 1796.35,707.071Z" style="fill:rgb(227,228,229);stroke:black;stroke-width:2.29px;stroke-linecap:round;stroke-linejoin:round;"/>
                        </g>
                    </g>
                </g>
                <g id="g9142" transform="matrix(-0.392631,0,0,0.392631,1544.91,412.545)">
                    <path id="path9144" d="M2485.23,-95.278L2496.75,-100.22C2531.32,-105.485 2547.96,-66.293 2551.18,-44.181C2564.46,-48.643 2582.15,-53.756 2602.05,-48.95C2597.06,-27.845 2600.81,-24.752 2592.91,3.115C2612.58,6.95 2613.18,13.536 2618.75,17.423C2594.75,37.417 2559.22,43.064 2557.54,68.295L2596.09,61.539C2614.51,46.304 2614.36,16.372 2651.34,15.833C2655.18,59.547 2630.41,46.44 2621.13,77.834C2650.41,80.219 2711.18,75.758 2708.97,84.988C2681.81,102.722 2683.74,108.328 2669.62,117.976L2660.48,118.771C2651.25,114.6 2645.79,99.853 2631.86,108.835C2631.86,108.834 2639.56,114.564 2661.27,123.54C2682.31,132.236 2678.36,155.335 2678.36,155.335C2647.38,160.125 2635.05,151.743 2621.53,144.207C2657.92,170.505 2647.98,187.367 2668.43,208.593L2663.26,208.195C2622.09,210.292 2601.14,192.468 2574.23,183.156C2577.74,194.246 2559.27,213.229 2553.96,224.49L2549.99,224.49L2526.94,170.438C2524.05,177.75 2519.66,176.04 2515.81,177.592L2491.17,111.219C2474.99,105.706 2477.57,93.937 2476.46,83.398C2480.24,83.865 2480.3,82.1 2488.78,85.385L2477.65,57.565L2475.67,38.09C2480.13,41.106 2488.42,39.021 2487.19,49.616C2490.21,61.726 2494.74,70.822 2498.72,81.014L2511.83,37.295L2487.19,-38.219L2501.1,-43.783C2495.85,-60.951 2522.54,-80.4 2485.23,-95.278Z" style="fill:rgb(234,193,2);stroke:black;stroke-width:2.61px;"/>
                    <path id="path9146" d="M2483.46,-94.74C2519.09,-107.491 2540.97,-73.143 2542.77,-44.706C2559.86,-49.575 2576.99,-53.924 2594.99,-47.871C2584,-23.762 2594.04,-10.327 2581.8,7.51C2603.41,9.345 2598.57,14.142 2610.28,18.586C2577.16,47.152 2548.14,41.15 2545.94,72.385C2599.45,55.904 2577.96,43.277 2602.9,28.608C2614.38,21.63 2628.18,16.968 2646.15,16.477C2650.04,63.157 2620.72,48.633 2612.92,78.187C2639.88,74.527 2643.45,59.179 2659.67,56.762C2675.9,54.345 2691.01,72.174 2708.39,82.934C2677.23,95.12 2673.92,120.289 2658.48,118.103C2644.27,116.368 2642.53,105.386 2625.58,112.998C2640.6,126.399 2666.38,124.433 2673.58,153.61C2636.33,166.173 2610.32,136.684 2573.36,135.677C2664.15,160.73 2631.1,188.351 2663.55,208.464C2638.71,205.696 2618.37,212.858 2572.31,186.311C2573.6,198.966 2556.86,208.853 2549.1,224.814C2544.3,199.634 2519.52,187.147 2524.31,147.808C2514.89,148.936 2529.75,176.489 2514.29,177.345C2501.22,166.078 2500.28,150.889 2500.05,140.424C2492.49,131.282 2502.9,157.02 2471.04,116.162C2468.22,111.922 2472.78,85.458 2476.32,83.461C2478.91,90.04 2481.37,96.904 2487.39,96.647C2485.29,86.913 2483.07,77.256 2476.84,70.275C2473.54,68.192 2474.09,50.204 2475.79,38.629C2487.11,52.529 2479.16,74.004 2497.94,77.659C2496.82,42.426 2466.78,53.254 2483.7,19.641C2481.41,1.533 2480.9,-55.91 2493.19,-33.63C2492.13,-63.929 2506.14,-85.337 2483.46,-94.74Z" style="fill:rgb(234,193,2);stroke:black;stroke-width:2.61px;stroke-linecap:round;stroke-linejoin:round;"/>
                    <path id="path9148" d="M2515.24,74.655C2499.61,-14.366 2526.04,-41.009 2508.24,-83.955M2566.68,-13.578C2532.86,15.833 2524.79,45.244 2522.17,74.655M2554.76,102.475C2597.94,105.409 2618.09,84.577 2662.86,83.398M2551.58,91.347C2586.44,86.39 2595.43,66.907 2606.43,51.603M2556.35,111.219C2585.01,111.9 2609.57,120.045 2622.32,129.502M2543.63,135.066C2572.32,167.813 2590.54,165.653 2613.58,179.579M2538.07,134.271C2533.81,159.849 2543.88,176.462 2546.81,189.118M2515.01,129.502C2511.87,134.042 2509.68,139.534 2508.66,146.194M2504.68,113.604C2491.59,118.751 2493.19,112.119 2478.45,115.194M2504.68,93.732C2499.38,92.891 2494.08,90.267 2488.78,81.014M2510.24,77.834C2506.33,55 2501.82,31.288 2489.58,-4.039" style="fill:none;fill-rule:nonzero;stroke:black;stroke-width:1.31px;stroke-linecap:round;stroke-linejoin:round;"/>
                    <g id="g9150" transform="matrix(-0.748008,0.507597,0.481371,0.883198,3520.47,-1419.32)">
                        <g id="path9152" transform="matrix(1.33459,0,0,1.44733,-589.588,-320.197)">
                            <path d="M1796.35,707.071C1796.35,719.81 1786.02,730.136 1773.28,730.136C1760.54,730.136 1750.22,719.81 1750.22,707.071C1750.22,694.332 1760.54,684.005 1773.28,684.005C1786.02,684.005 1796.35,694.332 1796.35,707.071Z" style="fill:rgb(234,193,2);stroke:black;stroke-width:1.98px;stroke-linecap:round;stroke-linejoin:round;"/>
                        </g>
                        <g id="path9154" transform="matrix(1.30451,0,0,1.44733,-532.961,-320.197)">
                            <path d="M1796.35,707.071C1796.35,719.81 1786.02,730.136 1773.28,730.136C1760.54,730.136 1750.22,719.81 1750.22,707.071C1750.22,694.332 1760.54,684.005 1773.28,684.005C1786.02,684.005 1796.35,694.332 1796.35,707.071Z" style="fill:rgb(234,193,2);stroke:black;stroke-width:2px;stroke-linecap:round;stroke-linejoin:round;"/>
                        </g>
                        <g id="path9156" transform="matrix(1.15414,0,0,1.25188,-265.608,-181.999)">
                            <path d="M1796.35,707.071C1796.35,719.81 1786.02,730.136 1773.28,730.136C1760.54,730.136 1750.22,719.81 1750.22,707.071C1750.22,694.332 1760.54,684.005 1773.28,684.005C1786.02,684.005 1796.35,694.332 1796.35,707.071Z" style="fill:rgb(227,228,229);stroke:black;stroke-width:2.29px;stroke-linecap:round;stroke-linejoin:round;"/>
                        </g>
                    </g>
                </g>
            </g>
        </g>
        <g transform="matrix(0.303031,0,0,0.303031,8.17674,-13.5405)">
            <path id="path9158" d="M293.445,474.442C296.417,474.765 299.94,474.492 302.768,473.464" style="fill:none;fill-rule:nonzero;stroke:black;stroke-width:0.5px;"/>
        </g>
        <g transform="matrix(0.303031,0,0,0.303031,8.17674,-13.5405)">
            <path id="path9160" d="M470.963,474.442C467.99,474.765 464.468,474.492 461.64,473.464" style="fill:none;fill-rule:nonzero;stroke:black;stroke-width:0.5px;"/>
        </g>
        <g transform="matrix(0.303031,0,0,0.303031,8.17674,-13.5405)">
            <path id="path9162" d="M587.772,490.944C584.871,490.248 581.679,488.808 579.419,486.897" style="fill:none;fill-rule:nonzero;stroke:black;stroke-width:0.5px;"/>
        </g>
        <g transform="matrix(0.303031,0,0,0.303031,8.17674,-13.5405)">
            <path id="path9164" d="M176.411,490.944C179.312,490.248 182.504,488.808 184.764,486.897" style="fill:none;fill-rule:nonzero;stroke:black;stroke-width:0.5px;"/>
        </g>
        <g transform="matrix(0.303031,0,0,0.303031,8.17674,-13.5405)">
            <g id="g9166" transform="matrix(1,0,0,0.948723,-644.358,-52.0764)">
                <g id="g9168">
                    <g id="g9170" transform="matrix(-0.448389,0.143055,0.143055,0.448389,1663.11,44.9247)">
                        <path id="path9172" d="M2069.06,730.688C2069.29,730.696 2069.49,730.781 2069.72,730.781C2082.48,730.781 2092.81,718.015 2092.81,702.281C2092.81,686.547 2082.48,673.781 2069.72,673.781C2069.49,673.781 2069.29,673.867 2069.06,673.875L2069.06,730.688Z" style="fill:rgb(237,28,36);fill-rule:nonzero;stroke:black;stroke-width:2.18px;"/>
                        <path id="path9174" d="M2066.29,668.732L2073.24,668.732L2073.24,735.261L2066.29,735.261C2063.83,709.571 2063.42,685.136 2066.29,668.732Z" style="fill:rgb(234,193,2);fill-rule:nonzero;stroke:black;stroke-width:2.18px;"/>
                    </g>
                    <g id="g9176" transform="matrix(-0.454619,0.121815,0.121815,0.454619,1690.4,77.2736)">
                        <path id="path9178" d="M2030.16,670.594C2024.15,672.349 2019.47,685.977 2019.47,702.5C2019.47,719.022 2024.15,732.619 2030.16,734.375L2030.41,734.438C2030.76,734.521 2031.11,734.563 2031.47,734.563L2042.31,734.539L2042.31,716.187C2043.05,712.027 2043.47,707.408 2043.47,702.5C2043.47,697.592 2043.05,692.942 2042.31,688.781L2042.31,670.603L2030.16,670.594L2030.16,670.594Z" style="fill:rgb(234,193,2);stroke:black;stroke-width:2.18px;stroke-linecap:round;stroke-linejoin:round;"/>
                        <g id="path9180" transform="matrix(1.97872,0,0,0.994099,-1999.37,4.33452)">
                            <path d="M2048.38,702.486C2048.38,720.208 2045.66,734.575 2042.31,734.575C2038.96,734.575 2036.24,720.208 2036.24,702.486C2036.24,684.764 2038.96,670.398 2042.31,670.398C2045.66,670.398 2048.38,684.764 2048.38,702.486Z" style="fill:rgb(234,193,2);stroke:black;stroke-width:1.56px;stroke-linecap:round;stroke-linejoin:round;"/>
                        </g>
                        <path id="path9182" d="M2042.96,674.401C2068.11,682.181 2066.51,724.064 2042.96,732.38C2026.61,728.908 2028.89,674.661 2042.96,674.401Z" style="fill:rgb(227,228,229);stroke:black;stroke-width:2.18px;stroke-linecap:round;stroke-linejoin:round;"/>
                    </g>
                </g>
                <g id="g9184" transform="matrix(-1,0,0,1,2053,0)">
                    <g id="g9186" transform="matrix(-0.448389,0.143055,0.143055,0.448389,1663.11,44.9247)">
                        <path id="path9188" d="M2069.06,730.688C2069.29,730.696 2069.49,730.781 2069.72,730.781C2082.48,730.781 2092.81,718.015 2092.81,702.281C2092.81,686.547 2082.48,673.781 2069.72,673.781C2069.49,673.781 2069.29,673.867 2069.06,673.875L2069.06,730.688Z" style="fill:rgb(237,28,36);fill-rule:nonzero;stroke:black;stroke-width:2.18px;"/>
                        <path id="path9190" d="M2066.29,668.732L2073.24,668.732L2073.24,735.261L2066.29,735.261C2063.83,709.571 2063.42,685.136 2066.29,668.732Z" style="fill:rgb(234,193,2);fill-rule:nonzero;stroke:black;stroke-width:2.18px;"/>
                    </g>
                    <g id="g9192" transform="matrix(-0.454619,0.121815,0.121815,0.454619,1690.4,77.2736)">
                        <path id="path9194" d="M2030.16,670.594C2024.15,672.349 2019.47,685.977 2019.47,702.5C2019.47,719.022 2024.15,732.619 2030.16,734.375L2030.41,734.438C2030.76,734.521 2031.11,734.563 2031.47,734.563L2042.31,734.539L2042.31,716.187C2043.05,712.027 2043.47,707.408 2043.47,702.5C2043.47,697.592 2043.05,692.942 2042.31,688.781L2042.31,670.603L2030.16,670.594L2030.16,670.594Z" style="fill:rgb(234,193,2);stroke:black;stroke-width:2.18px;stroke-linecap:round;stroke-linejoin:round;"/>
                        <g id="path9196" transform="matrix(1.97872,0,0,0.994099,-1999.37,4.33452)">
                            <path d="M2048.38,702.486C2048.38,720.208 2045.66,734.575 2042.31,734.575C2038.96,734.575 2036.24,720.208 2036.24,702.486C2036.24,684.764 2038.96,670.398 2042.31,670.398C2045.66,670.398 2048.38,684.764 2048.38,702.486Z" style="fill:rgb(234,193,2);stroke:black;stroke-width:1.56px;stroke-linecap:round;stroke-linejoin:round;"/>
                        </g>
                        <path id="path9198" d="M2042.96,674.401C2068.11,682.181 2066.51,724.064 2042.96,732.38C2026.61,728.908 2028.89,674.661 2042.96,674.401Z" style="fill:rgb(227,228,229);stroke:black;stroke-width:2.18px;stroke-linecap:round;stroke-linejoin:round;"/>
                    </g>
                </g>
            </g>
        </g>
        <g transform="matrix(0.303031,0,0,0.303031,8.17674,-13.5405)">
            <g id="g9200" transform="matrix(0.921613,0,0,0.874355,-846.455,333.896)">
                <path id="path9202" d="M1146.98,293.415C1146.98,293.415 1187.2,272.98 1333.1,272.98C1478.51,272.98 1519.21,293.415 1519.21,293.415C1519.21,293.415 1485.19,313.851 1333.1,313.851C1180.51,313.851 1146.98,293.415 1146.98,293.415Z" style="fill:rgb(237,28,36);stroke:black;stroke-width:1.11px;"/>
                <g id="g9204" transform="matrix(1,0,0,1,181.952,-177.549)">
                    <path id="path9206" d="M1103.77,494.662L1103.77,447.381" style="fill:none;fill-rule:nonzero;stroke:black;stroke-width:0.58px;"/>
                    <path id="path9208" d="M1095.22,494.662L1095.22,447.381" style="fill:none;fill-rule:nonzero;stroke:black;stroke-width:0.85px;"/>
                    <path id="path9210" d="M1087.15,494.662L1087.15,447.381" style="fill:none;fill-rule:nonzero;stroke:black;stroke-width:1.14px;"/>
                    <path id="path9212" d="M1079.14,494.662L1079.14,447.381" style="fill:none;fill-rule:nonzero;stroke:black;stroke-width:1.43px;"/>
                    <path id="path9214" d="M1072.01,494.662L1072.01,447.381" style="fill:none;fill-rule:nonzero;stroke:black;stroke-width:1.72px;"/>
                    <path id="path9216" d="M1058.41,492.113L1058.22,449.079M1064.86,492.679L1064.86,447.666" style="fill:none;fill-rule:nonzero;stroke:black;stroke-width:2.01px;"/>
                    <path id="path9218" d="M1045.86,490.178L1045.86,450.53M1052.22,491.31L1052.03,449.116" style="fill:none;fill-rule:nonzero;stroke:black;stroke-width:2.29px;"/>
                    <path id="path9220" d="M1029.01,487.914L1029.01,453.079M1034.54,488.48L1034.54,451.947M1040.23,489.612L1040.23,451.662" style="fill:none;fill-rule:nonzero;stroke:black;stroke-width:2.57px;"/>
                    <path id="path9222" d="M1023.11,487.629L1023.11,453.93" style="fill:none;fill-rule:nonzero;stroke:black;stroke-width:2.86px;"/>
                    <path id="path9224" d="M1017.6,485.931L1017.6,454.496" style="fill:none;fill-rule:nonzero;stroke:black;stroke-width:3.15px;"/>
                    <path id="path9226" d="M1011.69,485.08L1011.69,455.909" style="fill:none;fill-rule:nonzero;stroke:black;stroke-width:3.44px;"/>
                    <path id="path9228" d="M999.606,482.534L999.418,459.31M1005.8,483.666L1005.8,457.611" style="fill:none;fill-rule:nonzero;stroke:black;stroke-width:3.72px;"/>
                    <path id="path9230" d="M993.411,480.551L993.411,460.157" style="fill:none;fill-rule:nonzero;stroke:black;stroke-width:3.93px;"/>
                    <path id="path9232" d="M987.738,478.897L987.738,461.914" style="fill:none;fill-rule:nonzero;stroke:black;stroke-width:4.22px;"/>
                    <path id="path9234" d="M981.543,476.633L981.543,463.331" style="fill:none;fill-rule:nonzero;stroke:black;stroke-width:4.49px;"/>
                    <path id="path9236" d="M975.176,475.501L975.176,465.596" style="fill:none;fill-rule:nonzero;stroke:black;stroke-width:4.76px;"/>
                    <path id="path9238" d="M968.437,473.238L968.437,468.425" style="fill:none;fill-rule:nonzero;stroke:black;stroke-width:5.62px;"/>
                    <path id="path9240" d="M1137.8,492.113L1137.8,448.798M1123.31,493.53L1123.5,447.666M1112.75,494.096L1112.75,447.381" style="fill:none;fill-rule:nonzero;stroke:black;stroke-width:0.29px;"/>
                    <path id="path9242" d="M1198.51,494.662L1198.51,447.381" style="fill:none;fill-rule:nonzero;stroke:black;stroke-width:0.58px;"/>
                    <path id="path9244" d="M1207.07,494.662L1207.07,447.381" style="fill:none;fill-rule:nonzero;stroke:black;stroke-width:0.85px;"/>
                    <path id="path9246" d="M1215.14,494.662L1215.14,447.381" style="fill:none;fill-rule:nonzero;stroke:black;stroke-width:1.14px;"/>
                    <path id="path9248" d="M1223.14,494.662L1223.14,447.381" style="fill:none;fill-rule:nonzero;stroke:black;stroke-width:1.43px;"/>
                    <path id="path9250" d="M1230.27,494.662L1230.27,447.381" style="fill:none;fill-rule:nonzero;stroke:black;stroke-width:1.72px;"/>
                    <path id="path9252" d="M1243.88,492.113L1244.06,449.079M1237.43,492.679L1237.43,447.666" style="fill:none;fill-rule:nonzero;stroke:black;stroke-width:2.01px;"/>
                    <path id="path9254" d="M1256.43,490.178L1256.43,450.53M1250.07,491.31L1250.26,449.116" style="fill:none;fill-rule:nonzero;stroke:black;stroke-width:2.29px;"/>
                    <path id="path9256" d="M1273.28,487.914L1273.28,453.079M1267.75,488.48L1267.75,451.947M1262.06,489.612L1262.06,451.662" style="fill:none;fill-rule:nonzero;stroke:black;stroke-width:2.57px;"/>
                    <path id="path9258" d="M1279.18,487.629L1279.18,453.93" style="fill:none;fill-rule:nonzero;stroke:black;stroke-width:2.86px;"/>
                    <path id="path9260" d="M1284.69,485.931L1284.69,454.496" style="fill:none;fill-rule:nonzero;stroke:black;stroke-width:3.15px;"/>
                    <path id="path9262" d="M1290.59,485.08L1290.59,455.909" style="fill:none;fill-rule:nonzero;stroke:black;stroke-width:3.44px;"/>
                    <path id="path9264" d="M1302.68,482.534L1302.87,459.31M1296.49,483.666L1296.49,457.611" style="fill:none;fill-rule:nonzero;stroke:black;stroke-width:3.72px;"/>
                    <path id="path9266" d="M1308.88,480.551L1308.88,460.157" style="fill:none;fill-rule:nonzero;stroke:black;stroke-width:3.93px;"/>
                    <path id="path9268" d="M1314.55,478.897L1314.55,461.914" style="fill:none;fill-rule:nonzero;stroke:black;stroke-width:4.22px;"/>
                    <path id="path9270" d="M1320.74,476.633L1320.74,463.331" style="fill:none;fill-rule:nonzero;stroke:black;stroke-width:4.49px;"/>
                    <path id="path9272" d="M1327.11,475.501L1327.11,465.596" style="fill:none;fill-rule:nonzero;stroke:black;stroke-width:4.76px;"/>
                    <path id="path9274" d="M1333.85,473.238L1333.85,468.425" style="fill:none;fill-rule:nonzero;stroke:black;stroke-width:5.62px;"/>
                    <path id="path9276" d="M1164.49,492.113L1164.49,448.798M1178.98,493.53L1178.79,447.666M1189.54,494.096L1189.54,447.381" style="fill:none;fill-rule:nonzero;stroke:black;stroke-width:0.29px;"/>
                </g>
                <path id="path9278" d="M1332.93,258.951C1276.32,259.546 1219.06,259.609 1163.46,271.545C1151.05,275.486 1133.31,277.68 1128.65,291.639C1127.12,303.298 1141.13,308.247 1149.9,311.451C1191.64,324.061 1235.77,325.136 1279.02,327.107C1346.31,328.466 1414.01,328.993 1480.8,319.576C1499.05,316.029 1519.14,313.839 1534.15,301.889C1543.11,293.057 1533.21,280.71 1523.3,278.17C1489.33,265.05 1452.27,263.653 1416.34,260.982C1388.56,259.457 1360.74,258.97 1332.93,258.951ZM1333.09,272.982C1478.5,272.982 1519.21,293.42 1519.21,293.42C1519.21,293.42 1485.18,313.857 1333.09,313.857C1180.5,313.857 1146.99,293.42 1146.99,293.42C1146.99,293.42 1187.18,272.982 1333.09,272.982Z" style="fill:rgb(234,193,2);stroke:black;stroke-width:1.11px;"/>
            </g>
        </g>
    </g>
</svg>
